<svg xmlns="http://www.w3.org/2000/svg" viewBox="0 0 510.23 125.33"><defs><style>.cls-1{fill:#0069b4;}.cls-2{fill:#ef7d00;}</style></defs><g id="katman_2" data-name="katman 2"><g id="Foreground"><path class="cls-1" d="M118.26,8.18c1.83-3.12-1.25-6.57-6.78-7.77S100,.69,97.92,3.72L27.43,108.55c-4,5.92-1.47,13.28,6.13,15.86s17.13-.6,20.87-7Z"/><path class="cls-1" d="M3.32,124.93C0,123.75-1,120.45,1.09,117.59l40-55.1a7,7,0,0,0,0-8.54L4.69,9.27C2.36,6.4,5,2.68,10.47.93s11.71-1,14.2,1.76L61.59,43.16s3.14,3.43,0,8L13.11,121.73A9,9,0,0,1,3.32,124.93Z"/><path class="cls-2" d="M166.64.21a6.19,6.19,0,0,0-5.86,1.41L98,49.24s-4.44,3.47.9,8.82l60.82,61.44c5.76,5.82,15.88,7.59,22.23,3.77s6.24-11.28.3-16.74L119.64,48.92c-2.31-2.13-2.58-2.78-.21-4.67L170.15,3.79C171.34,2.63,169.24.74,166.64.21Z"/><path class="cls-2" d="M377.51,65.05a3.83,3.83,0,0,1-5.41,5.42l-14.05-14a3.81,3.81,0,0,1,0-5.42L372.1,37a3.83,3.83,0,0,1,5.41,5.41L366.17,53.72Z"/><path class="cls-2" d="M439.27,39.64a3.84,3.84,0,0,1-3.84,3.82,10.25,10.25,0,0,0-10.24,10.26V67.79a3.83,3.83,0,1,1-7.66,0V53.72a17.92,17.92,0,0,1,17.9-17.91A3.85,3.85,0,0,1,439.27,39.64Z"/><path class="cls-2" d="M396.62,35.81a17.91,17.91,0,1,0,10.29,32.54,3.82,3.82,0,0,0,7.6-.56V53.72A17.92,17.92,0,0,0,396.62,35.81Zm0,28.15a10.25,10.25,0,1,1,10.23-10.24A10.25,10.25,0,0,1,396.62,64Z"/><path class="cls-1" d="M277.34,39.64a3.82,3.82,0,0,1-3.83,3.82,10.26,10.26,0,0,0-10.24,10.26V67.79a3.83,3.83,0,1,1-7.65,0V53.72a17.91,17.91,0,0,1,17.89-17.91A3.83,3.83,0,0,1,277.34,39.64Z"/><path class="cls-1" d="M248.61,35.81a3.84,3.84,0,0,0-3.83,3.83V54.09a9.87,9.87,0,0,1-19.74,0V39.64a3.83,3.83,0,1,0-7.66,0V54.09a17.54,17.54,0,0,0,35.07,0V39.64A3.84,3.84,0,0,0,248.61,35.81Z"/><path class="cls-1" d="M293.2,35.81h-5.74V29.46a3.83,3.83,0,0,0-7.65,0V67.79a3.83,3.83,0,1,0,7.65,0V43.47h5.74a3.83,3.83,0,0,0,0-7.66Z"/><path class="cls-1" d="M304,35.81a3.83,3.83,0,0,0-3.83,3.83V67.79a3.83,3.83,0,0,0,7.66,0V39.64A3.83,3.83,0,0,0,304,35.81Z"/><path class="cls-1" d="M304,25.64a3.9,3.9,0,1,0,3.9,3.91A3.92,3.92,0,0,0,304,25.64Z"/><path class="cls-1" d="M350.62,35.81a3.83,3.83,0,0,0-3.82,3.83V67.79a3.83,3.83,0,1,0,7.65,0V39.64A3.83,3.83,0,0,0,350.62,35.81Z"/><path class="cls-1" d="M346.71,29.55a3.91,3.91,0,1,1,3.91,3.89A3.91,3.91,0,0,1,346.71,29.55Z"/><path class="cls-1" d="M336.63,61a10.26,10.26,0,1,1,0-14.49,3.83,3.83,0,1,0,5.42-5.41A17.9,17.9,0,1,0,325.58,71.2c0,.14,0,.27,0,.42v3.82c0,2.12,7.66,2.12,7.66,0V71.62c0-.15,0-.28,0-.42a17.83,17.83,0,0,0,8.85-4.84,3.83,3.83,0,1,0-5.42-5.4Z"/><path class="cls-2" d="M492.33,35.81a17.91,17.91,0,1,0,17.9,17.91A17.92,17.92,0,0,0,492.33,35.81Zm0,28.15a10.25,10.25,0,1,1,10.25-10.24A10.26,10.26,0,0,1,492.33,64Z"/><path class="cls-2" d="M472.54,74.2A17.71,17.71,0,0,1,455,92.11c-7.77,0-6.41-4.93-6.41-4.93a3.76,3.76,0,0,1,3.64-2.93c.73,0,1.46.21,2.77.21a10.08,10.08,0,0,0,9.88-10.26V68.38a17.69,17.69,0,0,1-10.25,3.24,17.91,17.91,0,1,1,17.9-17.9Zm-7.65-20.48A10.25,10.25,0,1,0,454.64,64,10.26,10.26,0,0,0,464.89,53.72Z"/><path class="cls-1" d="M196.55,84.45A10.06,10.06,0,0,0,206.4,74.2V68.38a16.66,16.66,0,0,1-9.86,3.24A17.34,17.34,0,0,1,179,54V39.64a3.82,3.82,0,1,1,7.64,0V54a9.87,9.87,0,1,0,19.73.07V39.64a3.83,3.83,0,0,1,7.66,0V74.2a17.71,17.71,0,0,1-17.51,17.91c-7.79,0-6.43-4.93-6.43-4.93a3.76,3.76,0,0,1,3.64-2.94C194.49,84.24,195.22,84.45,196.55,84.45Z"/><path class="cls-1" d="M419,92.14h0Z"/></g></g></svg>