<svg xmlns="http://www.w3.org/2000/svg" viewBox="0 0 208.83 256.58"><defs><style>.cls-1{fill:#fff;}</style></defs><g id="katman_2" data-name="katman 2"><g id="katman_1-2" data-name="katman 1"><path class="cls-1" d="M88.21,153a8.31,8.31,0,0,1-.69,3.38,8.58,8.58,0,0,1-1.88,2.74,9,9,0,0,1-2.78,1.85,8.75,8.75,0,0,1-9.57-1.85,8.86,8.86,0,0,1-1.86-2.74,8.31,8.31,0,0,1-.69-3.38,8.42,8.42,0,0,1,.69-3.36,8.83,8.83,0,0,1,1.86-2.76A8.61,8.61,0,0,1,76.05,145a8.75,8.75,0,0,1,6.81,0,9,9,0,0,1,2.78,1.86,8.56,8.56,0,0,1,1.88,2.76A8.42,8.42,0,0,1,88.21,153Z"/><path class="cls-1" d="M146,153a8.31,8.31,0,0,1-.69,3.38,8.74,8.74,0,0,1-1.88,2.74,8.94,8.94,0,0,1-2.79,1.85,8.72,8.72,0,0,1-6.8,0,8.74,8.74,0,0,1-2.77-1.85,9,9,0,0,1-1.85-2.74,8.31,8.31,0,0,1-.69-3.38,8.42,8.42,0,0,1,.69-3.36,9,9,0,0,1,1.85-2.76,8.76,8.76,0,0,1,2.77-1.86,8.72,8.72,0,0,1,6.8,0,9,9,0,0,1,2.79,1.86,8.72,8.72,0,0,1,1.88,2.76A8.42,8.42,0,0,1,146,153Z"/><path class="cls-1" d="M161.7,73.36v99.07l11.8-4.21c4.3-1.5,8.59-3,12.92-4.4-4.22,1.7-8.47,3.33-12.72,4.94l-12,4.45v8.91h.72l13.65.08c4.55.06,9.1.14,13.64.29-4.54.16-9.09.23-13.64.29l-13.65.09h-.72v8.72l12,4.45c4.25,1.61,8.5,3.24,12.72,4.94-4.33-1.41-8.62-2.9-12.92-4.4l-11.8-4.21v64.22h47.13V73.36Z"/><path class="cls-1" d="M46.62,73.36V0H0V174.48a79.59,79.59,0,0,0,6.43,31.88,82.95,82.95,0,0,0,43.79,43.79,79.76,79.76,0,0,0,31.88,6.43h35.48V210H82.1a34.61,34.61,0,0,1-13.89-2.83A36.32,36.32,0,0,1,56.9,199.5a34.79,34.79,0,0,1-5.26-6.75l-10.71,3.82c-4.3,1.5-8.6,3-12.92,4.4,4.22-1.7,8.47-3.33,12.72-4.94l10.55-3.91a36.18,36.18,0,0,1-1.92-3.84,33.59,33.59,0,0,1-1.78-5.44l-9.22-.06c-4.55-.06-9.1-.13-13.65-.29,4.55-.15,9.1-.23,13.65-.29l9.06,0a36.42,36.42,0,0,1-.8-7.67V171l-5.89-2.19c-4.25-1.61-8.5-3.24-12.72-4.94,4.32,1.41,8.62,2.9,12.92,4.4l5.69,2V120l9.77-21.18L67.84,120h72.42L150,98.79,161.48,120h.22V73.36Z"/></g></g></svg>