<svg xmlns="http://www.w3.org/2000/svg" viewBox="0 0 1014.38 260"><defs><style>.cls-1{fill:#224f4d;}.cls-2{fill:#f49700;}</style></defs><g id="katman_2" data-name="katman 2"><g id="katman_1-2" data-name="katman 1"><path class="cls-1" d="M47.13,260H0V3.43H47.13V165.22l69.76-88.44h53.82l-60.85,76.44L170.71,260H116.89L79.7,193.33,47.13,236.52Z"/><path class="cls-1" d="M358.21,163.17a98.86,98.86,0,0,1-7.37,38.3,95.74,95.74,0,0,1-20,30.68,93.82,93.82,0,0,1-29.74,20.4,93.16,93.16,0,0,1-73,0,94,94,0,0,1-50-51.08,98.67,98.67,0,0,1-7.37-38.3,100.31,100.31,0,0,1,7.37-38.74,94.64,94.64,0,0,1,20.14-30.76A93.5,93.5,0,0,1,228,73.36,90.71,90.71,0,0,1,264.46,66a96.05,96.05,0,0,1,36.59,6.94,88.39,88.39,0,0,1,29.74,19.71,93.39,93.39,0,0,1,20,30.68Q358.21,141.23,358.21,163.17Zm-47.13,0a54.46,54.46,0,0,0-3.69-20.49,48.65,48.65,0,0,0-10-15.76,43.46,43.46,0,0,0-14.83-10.12,48.32,48.32,0,0,0-36.16,0,42.54,42.54,0,0,0-14.74,10.12,48.28,48.28,0,0,0-9.86,15.76,55.67,55.67,0,0,0-3.6,20.49,53,53,0,0,0,3.6,19.71,49.47,49.47,0,0,0,9.86,15.76,46,46,0,0,0,14.74,10.54A43,43,0,0,0,264.46,213a45.77,45.77,0,0,0,18.08-3.6,45,45,0,0,0,14.83-10.11,47.45,47.45,0,0,0,10-15.77A54.6,54.6,0,0,0,311.08,163.17Z"/><path class="cls-1" d="M543.39,231.38a150.51,150.51,0,0,1-14.14,11.23,104.61,104.61,0,0,1-15.68,9.08,96.54,96.54,0,0,1-16.88,6.09A70.46,70.46,0,0,1,479.12,260a92.36,92.36,0,0,1-66.24-27.51,94.88,94.88,0,0,1-20.14-30.67,99.64,99.64,0,0,1-7.37-38.65,99.85,99.85,0,0,1,7.37-38.57,95.79,95.79,0,0,1,20.14-30.85A92.92,92.92,0,0,1,442.7,73.36,90.71,90.71,0,0,1,479.12,66a83.64,83.64,0,0,1,12.77,1,66.2,66.2,0,0,1,12.85,3.35,53.15,53.15,0,0,1,11.74,6.08,35.76,35.76,0,0,1,9.26,9.26V0h47.13V242.92m-47.13-79.75a48.59,48.59,0,0,0-3.69-18.6,53.46,53.46,0,0,0-10-15.94,49.82,49.82,0,0,0-14.83-11.14,40.18,40.18,0,0,0-18.08-4.2A47.68,47.68,0,0,0,461,116.72a42.67,42.67,0,0,0-14.74,9.85,46.24,46.24,0,0,0-9.86,15.69,57.31,57.31,0,0,0-3.6,20.91A52.22,52.22,0,0,0,446.3,198.3,46,46,0,0,0,461,209.1,42.33,42.33,0,0,0,479.12,213a40.18,40.18,0,0,0,18.08-4.2A49.82,49.82,0,0,0,512,197.7a53.46,53.46,0,0,0,10-15.94A48.54,48.54,0,0,0,525.74,163.17Z"/><path class="cls-1" d="M816.66,26.57a23.51,23.51,0,0,1-1.95,9.55,24.66,24.66,0,0,1-5.31,7.73,25.5,25.5,0,0,1-7.87,5.24,24.56,24.56,0,0,1-19.23,0,24.49,24.49,0,0,1-7.8-5.24,25.18,25.18,0,0,1-5.25-7.73,24.21,24.21,0,0,1,0-19,24.45,24.45,0,0,1,13-13,24.68,24.68,0,0,1,19.23,0,25.86,25.86,0,0,1,7.87,5.24,24.41,24.41,0,0,1,5.31,7.8A23.67,23.67,0,0,1,816.66,26.57Z"/><path class="cls-1" d="M694.76,156.39a8.34,8.34,0,0,1-.69,3.38,8.72,8.72,0,0,1-1.89,2.74,9.19,9.19,0,0,1-2.78,1.85,8.75,8.75,0,0,1-6.81,0,8.69,8.69,0,0,1-4.62-4.59,8.57,8.57,0,0,1,0-6.74,8.7,8.7,0,0,1,4.62-4.62,8.75,8.75,0,0,1,6.81,0,9,9,0,0,1,2.78,1.86,8.58,8.58,0,0,1,1.89,2.76A8.35,8.35,0,0,1,694.76,156.39Z"/><path class="cls-1" d="M752.58,156.39a8.34,8.34,0,0,1-.69,3.38,8.86,8.86,0,0,1-1.88,2.74,9.19,9.19,0,0,1-2.78,1.85,8.75,8.75,0,0,1-6.81,0,8.75,8.75,0,0,1-2.76-1.85,9,9,0,0,1-1.86-2.74,8.57,8.57,0,0,1,0-6.74,8.83,8.83,0,0,1,1.86-2.76,8.61,8.61,0,0,1,2.76-1.86,8.75,8.75,0,0,1,6.81,0,9,9,0,0,1,2.78,1.86,8.72,8.72,0,0,1,1.88,2.76A8.35,8.35,0,0,1,752.58,156.39Z"/><path class="cls-1" d="M1014.38,109.52,980.1,144a46.32,46.32,0,0,0-7-12.94,47.23,47.23,0,0,0-10-9.68,43.5,43.5,0,0,0-12.09-6,44.18,44.18,0,0,0-13.37-2.06,42.51,42.51,0,0,0-18.08,3.94,44.43,44.43,0,0,0-14.74,11.06,53,53,0,0,0-9.85,16.88,62,62,0,0,0-3.6,21.6,45.16,45.16,0,0,0,3.6,18,47.22,47.22,0,0,0,9.85,14.74A45.94,45.94,0,0,0,937.59,213a46,46,0,0,0,13.2-1.88,47.79,47.79,0,0,0,11.91-5.4,44.11,44.11,0,0,0,9.94-8.57A45,45,0,0,0,979.76,186L1014,220.41A93.09,93.09,0,0,1,999,237a95,95,0,0,1-18.34,12.51,91.43,91.43,0,0,1-20.74,7.8A94.06,94.06,0,0,1,937.59,260a91.85,91.85,0,0,1-36.42-7.28,94,94,0,0,1-50-49.62,90.24,90.24,0,0,1-7.37-36.33,104.83,104.83,0,0,1,7.37-39.43,101.65,101.65,0,0,1,20.14-32,95.34,95.34,0,0,1,29.82-21.51A85.83,85.83,0,0,1,937.59,66a88.16,88.16,0,0,1,22.54,2.91A90.84,90.84,0,0,1,999.72,91,84.56,84.56,0,0,1,1014.38,109.52Z"/><path class="cls-1" d="M768.24,76.78v99.08l11.8-4.21c4.3-1.5,8.6-3,12.93-4.4-4.23,1.7-8.48,3.33-12.73,4.94l-12,4.45v8.91H769l13.65.08c4.55.06,9.1.13,13.65.29-4.55.16-9.1.23-13.65.29l-13.65.08h-.72V195l12,4.45c4.25,1.61,8.5,3.24,12.73,4.94-4.33-1.41-8.63-2.9-12.93-4.4l-11.8-4.21V260h47.14V76.78Z"/><path class="cls-2" d="M653.16,76.78V3.43H606.54V177.91A79.8,79.8,0,0,0,613,209.79a82.95,82.95,0,0,0,43.79,43.79A79.76,79.76,0,0,0,688.64,260h35.48V213.38H688.64a34.55,34.55,0,0,1-13.88-2.82,36.09,36.09,0,0,1-11.31-7.63,34.46,34.46,0,0,1-5.27-6.75L647.47,200c-4.29,1.5-8.59,3-12.92,4.4,4.22-1.7,8.47-3.33,12.72-4.94l10.55-3.92a37.16,37.16,0,0,1-1.92-3.84,34.48,34.48,0,0,1-1.78-5.43l-9.22-.06c-4.55-.06-9.09-.13-13.64-.29,4.55-.16,9.09-.23,13.64-.29l9.07-.06a36.32,36.32,0,0,1-.81-7.66v-3.54l-5.89-2.18c-4.25-1.61-8.5-3.24-12.72-4.94,4.33,1.41,8.63,2.9,12.92,4.4l5.69,2V123.4l9.78-21.18,11.44,21.18H746.8l9.78-21.18L768,123.4h.22V76.78Z"/></g></g></svg>