<svg xmlns="http://www.w3.org/2000/svg" viewBox="0 0 1244.71 211.19"><defs><style>.cls-1{fill:#0c4da2;}.cls-2{fill:#ed1c24;}</style></defs><g id="katman_2" data-name="katman 2"><g id="Layer_1" data-name="Layer 1"><path class="cls-1" d="M187.9,43.87,242.53,68.7S125,96,0,210.25C0,210.25,86.91,75.33,187.9,43.87Z"/><path class="cls-2" d="M29.8,67.88S104.3,5.79,274,0c0,0-131.61,26.49-203.62,96.85Z"/><path class="cls-2" d="M264.36,120.62h30.79q-.82,9.06,4.89,13.59,6.15,4.53,17.47,4.53A31.85,31.85,0,0,0,332,135.56c3.92-2.1,6.13-5,6.64-8.6q1.16-8.16-17.3-12.23A77.21,77.21,0,0,1,309.5,112q-23.19-5.87-30.18-14-7.92-8.16-6-21.74,2.43-17.2,17.15-28.53,15-10.41,36.78-10.41,23.55,0,36.13,10.41,11.53,11.32,9.9,29.44H353.8q-8.61,0-12.06-7.7c-1-1.21-2.08-2.41-3.11-3.63q-4.86-4.06-14.37-4.07-9.08,0-14,2.72a10.8,10.8,0,0,0-5.22,8.15q-1,7.25,21.83,12.23a44.84,44.84,0,0,0,4.56,1.36,17.08,17.08,0,0,0,3.79.45q22.28,5.88,30.24,13.58Q372.94,108.4,371,122q-2.81,19.92-18.82,30.79-15,10-42.15,10-25.81,0-37-10.41-11.69-10.41-8.87-30.34Z"/><path class="cls-2" d="M480.66,160.47l8.21-58.42q2.47-17.65,9.37-29.66a60.26,60.26,0,0,1,17-19.24,66,66,0,0,1,21.56-10A94.52,94.52,0,0,1,561,40h4.53L561,72.17H550.58q-13.14,0-20.36,6.34t-9.15,19.92l-8.72,62Z"/><path class="cls-2" d="M629.44,155.49a62.18,62.18,0,0,1-21,6.11,185.9,185.9,0,0,1-18.95,1.13q-16.31,0-27.29-8.82t-8.12-29.21q2.67-19,14.91-27.18t29.83-10.86a28.16,28.16,0,0,0,5.53-.68q3.25-.67,7.41-1.13Q632,82.14,633.32,73.07q1-6.79-5.77-8.83a43.67,43.67,0,0,0-12.62-2A35.16,35.16,0,0,0,603.35,64a15,15,0,0,0-8.2,6.79H564.81a41.72,41.72,0,0,1,15.93-23.1Q594.43,37.3,617.07,37.3q25.36,0,36.83,8.6,11.85,9.06,9.57,25.36l-5.79,41.21q-2.55,18.11-10.55,28.3T629.44,155.49Zm.58-55.7a97.68,97.68,0,0,1-18.48,5.89l-10.74,2.26q-8.47,2.27-12.6,5.89a21.06,21.06,0,0,0-4.57,10q-1,6.79,2.55,10.87,3.57,3.63,11.26,3.62,12.67,0,20.95-7.24t10-19.93Z"/><path class="cls-1" d="M781.21,40,775,84.39,819.7,40h38l-49.52,46.2,33,74.26h-38l-16.46-40.76q-5.09-12.22-10.31-10.41c-3.5,1.21-5.41,3-5.75,5.43l-2.35,16.76-4.08,29h-31.7L754.48,4.69h16.3A12.85,12.85,0,0,1,781,9.22a12.63,12.63,0,0,1,3.06,10.41Z"/><path class="cls-1" d="M913.9,155.49a62.18,62.18,0,0,1-21,6.11,185.9,185.9,0,0,1-18.95,1.13q-16.31,0-27.29-8.82t-8.12-29.21q2.67-19,14.91-27.18t29.83-10.86A28.16,28.16,0,0,0,888.8,86q3.26-.67,7.41-1.13,20.29-2.71,21.58-11.78.94-6.79-5.78-8.83a43.67,43.67,0,0,0-12.62-2A35.16,35.16,0,0,0,887.81,64a15,15,0,0,0-8.2,6.79H849.27a41.72,41.72,0,0,1,15.93-23.1Q878.88,37.3,901.53,37.3q25.37,0,36.83,8.6,11.85,9.06,9.57,25.36l-5.79,41.21q-2.55,18.11-10.55,28.3T913.9,155.49Zm.58-55.7A97.68,97.68,0,0,1,896,105.68l-10.74,2.26q-8.47,2.27-12.6,5.89a21.16,21.16,0,0,0-4.57,10q-1,6.79,2.55,10.87,3.55,3.63,11.26,3.62,12.68,0,21-7.24t10-19.93Z"/><path class="cls-1" d="M939.92,160.47l8.21-58.42q2.49-17.65,9.38-29.66a60.14,60.14,0,0,1,17-19.24,65.87,65.87,0,0,1,21.55-10A94.52,94.52,0,0,1,1020.25,40h4.53l-4.52,32.16h-10.41q-13.15,0-20.37,6.34t-9.14,19.92l-8.72,62Z"/><path class="cls-1" d="M1091.74,153.23l1.08-7.7q-9.93,12.67-24.19,15.85a43.59,43.59,0,0,1-27.08-2.27q-12.83-5.43-20.49-20.15t-4.29-38.72q3.94-28.06,19.3-45.51T1080,37.3q21.74,0,38.65,11.77t12.45,43.47l-9,63.86q-4.46,31.69-24.64,43.24t-41.93,11.55q-41.67,0-46.16-38.94h33.06a19.21,19.21,0,0,0,9.73,9.73,22.35,22.35,0,0,0,14.69,1.81q7.7-1.59,14.82-8.83T1091.74,153.23Zm-44.31-52.08q-4.38,31.25,13.25,34.64t27.9-8.38q4.77-5,8.08-15.62a68.1,68.1,0,0,0,3.18-21.06A37.1,37.1,0,0,0,1095,72.17Q1090.24,64,1078.92,64q-15.4,0-22.42,11.32A65.57,65.57,0,0,0,1047.43,101.15Z"/><path class="cls-1" d="M1143.42,149.6q-8.36-8.15-10.5-22a99.32,99.32,0,0,1,6.8-53.21,60.54,60.54,0,0,1,13.51-20.38A55.33,55.33,0,0,1,1185.83,38q18.92-2.49,33.09,2.94A37.86,37.86,0,0,1,1241,64.47q5.58,14.94,2.8,34.86a93.3,93.3,0,0,1-6.68,24.91,75.58,75.58,0,0,1-10.63,17.66q-13,15-30.23,18.57a62.2,62.2,0,0,1-30.21.68Q1151.32,157.75,1143.42,149.6Zm32.94-79.7q-11,10.42-13,31t3.66,28.76q2.22,3.63,8.65,6.11a21.33,21.33,0,0,0,13.75.45q7.3-2,13.89-10.19t9.57-26.26q2.29-16.31-1.76-24.45c-2.71-5.44-6.23-8.9-10.54-10.42a21.92,21.92,0,0,0-13.56-.23Q1180,66.73,1176.36,69.9Z"/><path class="cls-2" d="M457.42,68l-6.88,49q-1.53,10.86-8.79,15.84a26.78,26.78,0,0,1-15.42,5,20,20,0,0,1-13.79-5q-5.66-5-4.12-15.84l6.88-49H383.61l-6,42.62q-4.39,31.26,10.28,41.22t34,10.86a78,78,0,0,0,38.08-10q18.15-10,22.68-42.12l6-42.62Z"/><path class="cls-2" d="M489.72,60.55,492.61,40H476.76A16.79,16.79,0,0,0,465,44.54a17.71,17.71,0,0,0-5.83,10.87l-.73,5.14Z"/><path class="cls-2" d="M416.36,60.55,419.24,40H400.46A14.86,14.86,0,0,0,385.75,52.8l-1.09,7.75Z"/><path class="cls-2" d="M713.46,40.24,716,19.82A13.15,13.15,0,0,0,712.79,9a12.41,12.41,0,0,0-9.86-4.36l-16.29.28-4.41,35.75C665.9,43,666.61,61.59,666.61,61.59h13l-9.46,76.77q-2.57,20.88,14.69,21.94a234.56,234.56,0,0,0,32.32-.1l2.91-23.6-9.51.16q-9.06.17-8.11-7.56L710.78,62,714,62a17.47,17.47,0,0,0,11.4-4.5,17.12,17.12,0,0,0,5.89-11.2l.79-6.36Z"/></g></g></svg>