<svg id="katman_1" data-name="katman 1" xmlns="http://www.w3.org/2000/svg" viewBox="0 0 172 148.77"><defs><style>.cls-1{fill:#fff;}</style></defs><g id="katman_2" data-name="katman 2"><g id="katman_1-2" data-name="katman 1-2"><path class="cls-1" d="M56.34,131.46l.72-.73a4.5,4.5,0,0,0,.46-5.84L21.27,75.12,57.52,25.36a4.5,4.5,0,0,0-.46-5.84l-.72-.73L0,75.12Z" transform="translate(0 0)"/><path class="cls-1" d="M113.72,136.35l-.75-.76a4.66,4.66,0,0,1-.47-6L150,78.14,112.5,26.65a4.66,4.66,0,0,1,.47-6l.75-.75L172,78.14Z" transform="translate(0 0)"/><rect class="cls-1" x="8.4" y="71.09" width="149.9" height="6.59" transform="matrix(0.17, -0.98, 0.98, 0.17, -4.37, 143.56)"/></g></g></svg>