<svg xmlns="http://www.w3.org/2000/svg" xmlns:xlink="http://www.w3.org/1999/xlink" viewBox="0 0 1116.51 1810.93"><defs><style>.cls-1,.cls-129{opacity:0.4;}.cls-2{fill:#3d8bff;}.cls-3{fill:#3c87f8;}.cls-4{fill:#3a84f1;}.cls-5{fill:#3980ea;}.cls-6{fill:#377de2;}.cls-7{fill:#3679db;}.cls-8{fill:#3476d4;}.cls-9{fill:#3372cd;}.cls-10{fill:#316fc6;}.cls-11{fill:#306bbf;}.cls-12{fill:#2e68b7;}.cls-13{fill:#2d64b0;}.cls-14{fill:#2b61a9;}.cls-15{fill:#2a5da2;}.cls-16{fill:#29599b;}.cls-17{fill:#275694;}.cls-18{fill:#26528d;}.cls-19{fill:#244f85;}.cls-20{fill:#234b7e;}.cls-21{fill:#214877;}.cls-22{fill:#204470;}.cls-23{fill:#1e4169;}.cls-24{fill:#1d3d62;}.cls-25{fill:#1b3a5a;}.cls-26{fill:#1a3653;}.cls-27{fill:#18334c;}.cls-116,.cls-117,.cls-118,.cls-119,.cls-120,.cls-121,.cls-122,.cls-123,.cls-124,.cls-125,.cls-126,.cls-127,.cls-129,.cls-130,.cls-131,.cls-132,.cls-133,.cls-134,.cls-135,.cls-28,.cls-55{fill:#172f45;}.cls-29{fill:#162d45;}.cls-30{fill:#152c45;}.cls-31{fill:#152a45;}.cls-32{fill:#142945;}.cls-33{fill:#132744;}.cls-34{fill:#122644;}.cls-35{fill:#112444;}.cls-36{fill:#112344;}.cls-37{fill:#102144;}.cls-38{fill:#0f2044;}.cls-39{fill:#0e1e44;}.cls-40{fill:#0d1d44;}.cls-41{fill:#0d1c44;}.cls-42{fill:#0c1a43;}.cls-43{fill:#0b1943;}.cls-44{fill:#0a1743;}.cls-45{fill:#091643;}.cls-46{fill:#081443;}.cls-47{fill:#081343;}.cls-48{fill:#071143;}.cls-49{fill:#061043;}.cls-50{fill:#050e42;}.cls-51{fill:#040d42;}.cls-52{fill:#040b42;}.cls-53{fill:#030a42;}.cls-54{fill:#020842;}.cls-55{opacity:0.1;}.cls-56{fill:#253d54;opacity:0.18;}.cls-57{fill:#334c62;}.cls-117,.cls-57{opacity:0.26;}.cls-58{fill:#425a71;opacity:0.35;}.cls-59{fill:#506880;opacity:0.43;}.cls-60{fill:#5e778e;opacity:0.51;}.cls-61{fill:#6c859d;opacity:0.59;}.cls-62{fill:#7a94ab;opacity:0.67;}.cls-63{fill:#88a2ba;opacity:0.75;}.cls-64{fill:#97b0c9;}.cls-126,.cls-64{opacity:0.84;}.cls-65{fill:#a5bfd7;opacity:0.92;}.cls-66{fill:#b3cde6;}.cls-136,.cls-145,.cls-67{fill:#fff;}.cls-68{fill:#b9d1e8;}.cls-69{fill:#bfd5ea;}.cls-70{fill:#c6d9ec;}.cls-71{fill:#ccdeee;}.cls-72{fill:#d2e2f0;}.cls-73{fill:#d9e6f2;}.cls-74{fill:#dfeaf5;}.cls-75{fill:#e6eef7;}.cls-76{fill:#ecf2f9;}.cls-77{fill:#f2f7fb;}.cls-78{fill:#f9fbfd;}.cls-79{fill:#b6cfe7;}.cls-80{fill:#bcd3e9;}.cls-81{fill:#c2d7eb;}.cls-82{fill:#c5d9ec;}.cls-83{fill:#c7daed;}.cls-84{fill:#cadcee;}.cls-85{fill:#cddeef;}.cls-86{fill:#d0e0f0;}.cls-87{fill:#d3e2f1;}.cls-88{fill:#d6e4f2;}.cls-89{fill:#d9e6f3;}.cls-90{fill:#dce8f3;}.cls-91{fill:#dfeaf4;}.cls-92{fill:#e2ecf5;}.cls-93{fill:#e5eef6;}.cls-94{fill:#e8f0f7;}.cls-95{fill:#ebf2f8;}.cls-96{fill:#edf3f9;}.cls-97{fill:#f0f5fa;}.cls-98{fill:#f3f7fb;}.cls-99{fill:#f6f9fc;}.cls-100{fill:#fcfdfe;}.cls-101{fill:url(#linear-gradient);}.cls-102{fill:url(#linear-gradient-2);}.cls-103{fill:#bad2e8;}.cls-104{fill:#c1d6eb;}.cls-105{fill:#c8dbed;}.cls-106{fill:#cfdfef;}.cls-107{fill:#d6e4f1;}.cls-108{fill:#dce8f4;}.cls-109{fill:#e3edf6;}.cls-110{fill:#eaf1f8;}.cls-111{fill:#f1f6fa;}.cls-112{fill:#f8fafd;}.cls-113,.cls-114,.cls-143,.cls-144{opacity:0.3;}.cls-113{fill:url(#linear-gradient-3);}.cls-115{fill:url(#linear-gradient-4);}.cls-116,.cls-145{opacity:0.2;}.cls-118{opacity:0.33;}.cls-119{opacity:0.39;}.cls-120{opacity:0.45;}.cls-121{opacity:0.52;}.cls-122{opacity:0.58;}.cls-123{opacity:0.65;}.cls-124{opacity:0.71;}.cls-125{opacity:0.77;}.cls-127{opacity:0.9;}.cls-128{fill:#3ccbff;}.cls-130{opacity:0.47;}.cls-131{opacity:0.54;}.cls-132{opacity:0.61;}.cls-133{opacity:0.69;}.cls-134{opacity:0.76;}.cls-135{opacity:0.83;}.cls-136{opacity:0;}.cls-137{fill:#e3f8ff;opacity:0.14;}.cls-138{fill:#c7f0ff;opacity:0.29;}.cls-139{fill:#abe9ff;opacity:0.43;}.cls-140{fill:#90e1ff;opacity:0.57;}.cls-141{fill:#74daff;opacity:0.71;}.cls-142{fill:#58d2ff;opacity:0.86;}.cls-143{fill:url(#linear-gradient-5);}.cls-144{fill:url(#linear-gradient-6);}.cls-146{fill:#a1173a;}.cls-147{fill:#454545;}</style><linearGradient id="linear-gradient" x1="554.75" y1="861" x2="554.75" y2="789" gradientUnits="userSpaceOnUse"><stop offset="0.09" stop-color="#172f45"/><stop offset="0.19" stop-color="#375066"/><stop offset="0.38" stop-color="#6c859d"/><stop offset="0.55" stop-color="#93acc5"/><stop offset="0.68" stop-color="#aac4dd"/><stop offset="0.76" stop-color="#b3cde6"/><stop offset="1" stop-color="#d4e2f1"/></linearGradient><linearGradient id="linear-gradient-2" x1="554.75" y1="861" x2="554.75" y2="817.72" gradientUnits="userSpaceOnUse"><stop offset="0.05" stop-color="#172f45"/><stop offset="0.16" stop-color="#375066"/><stop offset="0.36" stop-color="#6c859d"/><stop offset="0.54" stop-color="#93acc5"/><stop offset="0.67" stop-color="#aac4dd"/><stop offset="0.76" stop-color="#b3cde6"/><stop offset="1" stop-color="#d4e2f1"/></linearGradient><linearGradient id="linear-gradient-3" x1="558.25" y1="638" x2="558.25" y2="154" gradientUnits="userSpaceOnUse"><stop offset="0.5" stop-color="#172f45"/><stop offset="0.54" stop-color="#375066"/><stop offset="0.61" stop-color="#6c859d"/><stop offset="0.68" stop-color="#93acc5"/><stop offset="0.73" stop-color="#aac4dd"/><stop offset="0.76" stop-color="#b3cde6"/><stop offset="1" stop-color="#d4e2f1"/></linearGradient><linearGradient id="linear-gradient-4" x1="558.25" y1="638" x2="558.25" y2="154" gradientUnits="userSpaceOnUse"><stop offset="0.09" stop-color="#172f45"/><stop offset="0.2" stop-color="#375066"/><stop offset="0.39" stop-color="#6c859d"/><stop offset="0.55" stop-color="#93acc5"/><stop offset="0.68" stop-color="#aac4dd"/><stop offset="0.76" stop-color="#b3cde6"/><stop offset="1" stop-color="#d4e2f1"/></linearGradient><linearGradient id="linear-gradient-5" x1="558.25" y1="85.17" x2="558.25" y2="29.56" xlink:href="#linear-gradient-3"/><linearGradient id="linear-gradient-6" x1="558.25" y1="72.09" x2="558.25" y2="42.65" gradientUnits="userSpaceOnUse"><stop offset="0.04" stop-color="#172f45"/><stop offset="0.15" stop-color="#375066"/><stop offset="0.36" stop-color="#6c859d"/><stop offset="0.53" stop-color="#93acc5"/><stop offset="0.67" stop-color="#aac4dd"/><stop offset="0.76" stop-color="#b3cde6"/><stop offset="1" stop-color="#d4e2f1"/></linearGradient></defs><g id="katman_2" data-name="katman 2"><g id="BACKGROUND"><g class="cls-1"><ellipse class="cls-2" cx="558.25" cy="1739.92" rx="512.11" ry="57.05"/><ellipse class="cls-3" cx="558.25" cy="1741.04" rx="506.92" ry="56.47"/><ellipse class="cls-4" cx="558.25" cy="1742.16" rx="501.73" ry="55.89"/><ellipse class="cls-5" cx="558.25" cy="1743.27" rx="496.53" ry="55.31"/><ellipse class="cls-6" cx="558.25" cy="1744.39" rx="491.34" ry="54.73"/><ellipse class="cls-7" cx="558.25" cy="1745.5" rx="486.14" ry="54.15"/><ellipse class="cls-8" cx="558.25" cy="1746.62" rx="480.95" ry="53.57"/><ellipse class="cls-9" cx="558.25" cy="1747.73" rx="475.76" ry="53"/><ellipse class="cls-10" cx="558.25" cy="1748.85" rx="470.56" ry="52.42"/><ellipse class="cls-11" cx="558.25" cy="1749.96" rx="465.37" ry="51.84"/><ellipse class="cls-12" cx="558.25" cy="1751.08" rx="460.18" ry="51.26"/><ellipse class="cls-13" cx="558.25" cy="1752.2" rx="454.98" ry="50.68"/><ellipse class="cls-14" cx="558.25" cy="1753.31" rx="449.79" ry="50.1"/><ellipse class="cls-15" cx="558.25" cy="1754.43" rx="444.6" ry="49.52"/><ellipse class="cls-16" cx="558.25" cy="1755.54" rx="439.4" ry="48.95"/><ellipse class="cls-17" cx="558.25" cy="1756.66" rx="434.21" ry="48.37"/><ellipse class="cls-18" cx="558.25" cy="1757.77" rx="429.02" ry="47.79"/><ellipse class="cls-19" cx="558.25" cy="1758.89" rx="423.82" ry="47.21"/><ellipse class="cls-20" cx="558.25" cy="1760" rx="418.63" ry="46.63"/><ellipse class="cls-21" cx="558.25" cy="1761.12" rx="413.44" ry="46.05"/><ellipse class="cls-22" cx="558.25" cy="1762.24" rx="408.24" ry="45.48"/><ellipse class="cls-23" cx="558.25" cy="1763.35" rx="403.05" ry="44.9"/><ellipse class="cls-24" cx="558.25" cy="1764.47" rx="397.86" ry="44.32"/><ellipse class="cls-25" cx="558.25" cy="1765.58" rx="392.66" ry="43.74"/><ellipse class="cls-26" cx="558.25" cy="1766.7" rx="387.47" ry="43.16"/><ellipse class="cls-27" cx="558.25" cy="1767.81" rx="382.28" ry="42.58"/><ellipse class="cls-28" cx="558.25" cy="1768.93" rx="377.08" ry="42"/><ellipse class="cls-29" cx="558.25" cy="1769.11" rx="370.64" ry="41.29"/><ellipse class="cls-30" cx="558.25" cy="1769.29" rx="364.2" ry="40.57"/><ellipse class="cls-31" cx="558.25" cy="1769.47" rx="357.76" ry="39.85"/><ellipse class="cls-32" cx="558.25" cy="1769.65" rx="351.32" ry="39.13"/><ellipse class="cls-33" cx="558.25" cy="1769.83" rx="344.87" ry="38.42"/><ellipse class="cls-34" cx="558.25" cy="1770.01" rx="338.43" ry="37.7"/><ellipse class="cls-35" cx="558.25" cy="1770.19" rx="331.99" ry="36.98"/><ellipse class="cls-36" cx="558.25" cy="1770.37" rx="325.55" ry="36.26"/><ellipse class="cls-37" cx="558.25" cy="1770.55" rx="319.1" ry="35.55"/><ellipse class="cls-38" cx="558.25" cy="1770.73" rx="312.66" ry="34.83"/><ellipse class="cls-39" cx="558.25" cy="1770.91" rx="306.22" ry="34.11"/><ellipse class="cls-40" cx="558.25" cy="1771.09" rx="299.78" ry="33.39"/><ellipse class="cls-41" cx="558.25" cy="1771.28" rx="293.34" ry="32.68"/><ellipse class="cls-42" cx="558.25" cy="1771.46" rx="286.89" ry="31.96"/><ellipse class="cls-43" cx="558.25" cy="1771.64" rx="280.45" ry="31.24"/><ellipse class="cls-44" cx="558.25" cy="1771.82" rx="274.01" ry="30.52"/><ellipse class="cls-45" cx="558.25" cy="1772" rx="267.57" ry="29.81"/><ellipse class="cls-46" cx="558.25" cy="1772.18" rx="261.13" ry="29.09"/><ellipse class="cls-47" cx="558.25" cy="1772.36" rx="254.68" ry="28.37"/><ellipse class="cls-48" cx="558.25" cy="1772.54" rx="248.24" ry="27.65"/><ellipse class="cls-49" cx="558.25" cy="1772.72" rx="241.8" ry="26.93"/><ellipse class="cls-50" cx="558.25" cy="1772.9" rx="235.36" ry="26.22"/><ellipse class="cls-51" cx="558.25" cy="1773.08" rx="228.92" ry="25.5"/><ellipse class="cls-52" cx="558.25" cy="1773.26" rx="222.47" ry="24.78"/><ellipse class="cls-53" cx="558.25" cy="1773.44" rx="216.03" ry="24.06"/><ellipse class="cls-54" cx="558.25" cy="1773.62" rx="209.59" ry="23.35"/></g></g><g id="AI_ROBOT" data-name="AI ROBOT"><path class="cls-28" d="M890.34,992.76a23.18,23.18,0,0,1,31.94,7.38l133.21,213.25a23.18,23.18,0,0,1-39.33,24.56L883,1024.7A23.18,23.18,0,0,1,890.34,992.76Z"/><path class="cls-55" d="M1035.85,1239a13.37,13.37,0,0,0,11.31-20.46L914,1005.34a13.37,13.37,0,1,0-22.68,14.16l133.21,213.25A13.31,13.31,0,0,0,1035.85,1239Z"/><path class="cls-56" d="M1032.39,1232.58a12.37,12.37,0,0,0,10.48-18.92L916.93,1012.2a12.37,12.37,0,1,0-21,13.11l125.94,201.45A12.3,12.3,0,0,0,1032.39,1232.58Z"/><path class="cls-57" d="M1028.94,1226.13a11.39,11.39,0,0,0,11.07-8.82,11.22,11.22,0,0,0-1.44-8.58L919.9,1019.07a11.38,11.38,0,1,0-19.31,12l118.67,189.66A11.36,11.36,0,0,0,1028.94,1226.13Z"/><path class="cls-58" d="M1025.49,1219.68a10.37,10.37,0,0,0,8.79-15.88L922.87,1025.93a10.39,10.39,0,0,0-17.63,11l111.41,177.87A10.35,10.35,0,0,0,1025.49,1219.68Z"/><path class="cls-59" d="M1022,1213.23a9.38,9.38,0,0,0,8-14.36L925.85,1032.8a9.41,9.41,0,0,0-17.14,2.86,9.24,9.24,0,0,0,1.19,7.08L1014,1208.81A9.35,9.35,0,0,0,1022,1213.23Z"/><path class="cls-60" d="M1018.58,1206.77a8.44,8.44,0,0,0,4.44-1.27,8.38,8.38,0,0,0,2.68-11.56l-96.88-154.28a8.44,8.44,0,0,0-11.59-2.67,8.38,8.38,0,0,0-2.68,11.56l96.88,154.28A8.37,8.37,0,0,0,1018.58,1206.77Z"/><path class="cls-61" d="M1015.13,1200.32a7.45,7.45,0,0,0,3.91-1.12,7.38,7.38,0,0,0,2.36-10.19l-89.61-142.48a7.43,7.43,0,0,0-10.22-2.36,7.39,7.39,0,0,0-2.37,10.19l89.61,142.48A7.38,7.38,0,0,0,1015.13,1200.32Z"/><path class="cls-62" d="M1011.67,1193.87a6.45,6.45,0,0,0,3.39-1,6.37,6.37,0,0,0,2.86-4,6.29,6.29,0,0,0-.81-4.82l-82.35-130.7a6.42,6.42,0,0,0-8.85-2,6.35,6.35,0,0,0-2,8.81l82.34,130.69A6.4,6.4,0,0,0,1011.67,1193.87Z"/><path class="cls-63" d="M1008.22,1187.42a5.46,5.46,0,0,0,2.86-.82,5.37,5.37,0,0,0,2.42-3.37,5.3,5.3,0,0,0-.68-4.07l-75.08-118.9a5.47,5.47,0,0,0-7.5-1.72,5.37,5.37,0,0,0-1.73,7.44l75.08,118.9A5.41,5.41,0,0,0,1008.22,1187.42Z"/><path class="cls-64" d="M1004.77,1181a4.47,4.47,0,0,0,2.33-.67,4.33,4.33,0,0,0,2-2.75,4.27,4.27,0,0,0-.56-3.32l-67.81-107.11a4.48,4.48,0,0,0-6.13-1.4,4.38,4.38,0,0,0-1.42,6.07l67.82,107.1A4.41,4.41,0,0,0,1004.77,1181Z"/><path class="cls-65" d="M1001.31,1174.51a3.55,3.55,0,0,0,1.82-.51,3.38,3.38,0,0,0,1.1-4.7L943.68,1074a3.47,3.47,0,0,0-4.76-1.09,3.38,3.38,0,0,0-1.54,2.13,3.26,3.26,0,0,0,.44,2.56l60.55,95.32A3.43,3.43,0,0,0,1001.31,1174.51Z"/><path class="cls-66" d="M997.86,1168.06a2.5,2.5,0,0,0,1.29-.37,2.38,2.38,0,0,0,.79-3.32l-53.29-83.52a2.51,2.51,0,0,0-3.39-.77,2.38,2.38,0,0,0-1.1,1.51,2.31,2.31,0,0,0,.31,1.81l53.28,83.52A2.44,2.44,0,0,0,997.86,1168.06Z"/><path class="cls-67" d="M855.92,887.81s-28.35,87.08,0,178.67c0,0,104.26-8.58,104.26-89.34S855.92,887.81,855.92,887.81Z"/><path class="cls-68" d="M860.61,1059.31c8.7-1.28,27-4.77,45-13.28,31.9-15.08,48.07-38.25,48.07-68.89,0-50.1-44.73-70.3-73.84-78.13a18.89,18.89,0,0,0-23.43,14.64C850.34,944.37,843.88,1000.83,860.61,1059.31Z"/><path class="cls-69" d="M856.47,912.76c-5.65,29.3-11.62,82.79,4,138.31,8.15.07,26.14-2.44,43.61-10.8,30.69-14.65,46.19-37,46.07-66.55-.18-48.1-43.1-67.45-71.22-75a19.24,19.24,0,0,0-3.93-.62A18,18,0,0,0,856.47,912.76Z"/><path class="cls-70" d="M856.57,911.86c-5.26,27.89-10.76,78.4,3.83,131,7.59,1.42,25.29-.11,42.25-8.32,29.48-14.23,44.3-35.84,44.07-64.21-.36-46.11-41.47-64.6-68.61-71.77a18.89,18.89,0,0,0-3.75-.6A17.09,17.09,0,0,0,856.57,911.86Z"/><path class="cls-71" d="M856.67,911c-4.88,26.46-9.89,74,3.63,123.63,7,2.76,24.45,2.21,40.89-5.84,28.27-13.82,42.42-34.64,42.07-61.89-.54-44.11-39.84-61.74-66-68.57a18.83,18.83,0,0,0-3.58-.59A16.19,16.19,0,0,0,856.67,911Z"/><path class="cls-72" d="M856.76,910.07c-4.48,25-9,69.62,3.43,116.29,6.48,4.11,23.62,4.54,39.54-3.36,27-13.39,40.54-33.43,40.07-59.55-.72-42.11-38.22-58.89-63.38-65.39a20.46,20.46,0,0,0-3.4-.57A15.29,15.29,0,0,0,856.76,910.07Z"/><path class="cls-73" d="M856.86,909.18c-4.1,23.62-8.15,65.22,3.23,109,5.92,5.46,22.77,6.87,38.18-.89,25.84-13,38.65-32.22,38.07-57.21-.9-40.12-36.59-56-60.76-62.21a22.09,22.09,0,0,0-3.23-.56A14.41,14.41,0,0,0,856.86,909.18Z"/><path class="cls-74" d="M857,908.28c-3.72,22.21-7.29,60.83,3,101.61,5.36,6.81,21.93,9.2,36.82,1.59,24.63-12.55,36.77-31,36.07-54.88-1.08-38.11-35-53.19-58.15-59a22.11,22.11,0,0,0-3.06-.55A13.5,13.5,0,0,0,857,908.28Z"/><path class="cls-75" d="M857.06,907.39c-3.33,20.78-6.42,56.43,2.83,94.27,4.81,8.15,21.09,11.52,35.46,4.06,23.42-12.12,34.89-29.8,34.07-52.54-1.26-36.12-33.33-50.34-55.53-55.83a23.18,23.18,0,0,0-2.89-.53A12.62,12.62,0,0,0,857.06,907.39Z"/><path class="cls-76" d="M857.16,906.49c-2.95,19.37-5.56,52,2.62,86.93,4.26,9.5,20.25,13.85,34.11,6.55,22.21-11.71,33-28.6,32.07-50.21-1.44-34.12-31.7-47.49-52.92-52.64a24.36,24.36,0,0,0-2.71-.52A11.72,11.72,0,0,0,857.16,906.49Z"/><path class="cls-77" d="M857.26,905.6c-2.56,17.95-4.69,47.65,2.42,79.59,3.7,10.84,19.41,16.17,32.75,9,21-11.29,31.12-27.39,30.07-47.88-1.62-32.12-30.07-44.64-50.3-49.45-.86-.21-1.71-.37-2.54-.5A10.85,10.85,0,0,0,857.26,905.6Z"/><path class="cls-78" d="M857.36,904.7c-2.18,16.53-3.83,43.26,2.22,72.25,3.14,12.19,18.57,18.5,31.39,11.5,19.79-10.86,29.24-26.19,28.07-45.54-1.8-30.13-28.44-41.79-47.69-46.27-.8-.18-1.59-.35-2.36-.49A10,10,0,0,0,857.36,904.7Z"/><path class="cls-67" d="M859.47,968.72c2.59,13.54,17.73,20.83,29.77,14.12l.27-.15c18.58-10.44,27.35-25,26.07-43.2-2.06-29.28-28.86-39.79-47.26-43.56a9.13,9.13,0,0,0-10.86,7.88A216.31,216.31,0,0,0,859.47,968.72Z"/><path class="cls-67" d="M980.94,1618.19h80.32a55.24,55.24,0,0,0,55.25-55.25l-13.08-313.65a55.25,55.25,0,0,0-55.25-55.24H990.76a55.25,55.25,0,0,0-55.25,55.24l-9.81,313.65A55.24,55.24,0,0,0,980.94,1618.19Z"/><path class="cls-66" d="M1061.26,1613c26.86,0,48.71-22.52,48.71-49.38l-13.08-313.51c0-27.13-21.86-49.11-48.71-49.11H990.76a48.58,48.58,0,0,0-48.71,48.5l-9.81,314.43c0,26.65,21.85,49.07,48.7,49.07Z"/><path class="cls-79" d="M941.86,1254.32c-.17,2.15-8.7,275-8.64,276.87,0,.16-.92,31.94-.79,32.16.31,26.13,21.91,48.21,48.21,48.25l40.17.13c.68,0,40-.28,40-.79,25.82,0,47-22.83,47-48.65l-6.4-164c.09-.76-6-141.78-6.48-142.36a49.94,49.94,0,0,0-48.79-48.71c-.29-.26-55.87-.4-56.24-.41a48,48,0,0,0-32.11,12.29A47.34,47.34,0,0,0,941.86,1254.32Z"/><path class="cls-68" d="M941.67,1259.34c-.34,4.32-8.61,268.34-8.49,272.18,0,.32-.82,31-.56,31.48.61,25.61,22,47.38,47.71,47.45l40.29.26c1.35.11,39.67-.55,39.75-1.57,24.79,0,45.27-23.27,45.27-48.06l-5.81-160.29c.18-1.52-5.85-137.71-6.87-138.86-1.18-26.36-22.83-47.09-48.87-48.18-.59-.51-54.33-.8-55.07-.81a47.37,47.37,0,0,0-31.53,12A46,46,0,0,0,941.67,1259.34Z"/><path class="cls-80" d="M941.47,1264.37c-.51,6.47-8.51,261.72-8.33,267.49,0,.46-.71,30.14-.32,30.79.91,25.09,22,46.55,47.2,46.66l40.42.39c2,.16,39.36-.83,39.48-2.36,23.76,0,43.56-23.7,43.56-47.46l-5.22-156.54c.28-2.29-5.74-133.65-7.27-135.36-1.77-26-23.31-46-49-47.65-.88-.77-52.78-1.19-53.9-1.21a46.82,46.82,0,0,0-30.95,11.61A44.8,44.8,0,0,0,941.47,1264.37Z"/><path class="cls-69" d="M941.28,1269.4c-.68,8.62-8.42,255.1-8.18,262.79,0,.62-.61,29.24-.09,30.11,1.21,24.57,22.09,45.72,46.7,45.87l40.54.52c2.69.21,39.07-1.11,39.23-3.15,22.72,0,41.83-24.14,41.83-46.86l-4.62-152.79c.37-3.05-5.63-129.58-7.67-131.87-2.35-25.59-23.8-44.94-49-47.11-1.18-1-51.24-1.59-52.73-1.62a46.25,46.25,0,0,0-30.38,11.29A43.55,43.55,0,0,0,941.28,1269.4Z"/><path class="cls-81" d="M941.09,1274.42c-.85,10.78-8.33,248.49-8,258.1-.07.78-.52,28.35.13,29.43,1.52,24.06,22.16,44.89,46.2,45.08l40.66.65c3.37.26,38.77-1.39,39-3.94,21.69,0,40.12-24.58,40.12-46.27l-4-149c.46-3.81-5.52-125.51-8.07-128.37-2.94-25.21-24.28-43.86-49.1-46.58-1.47-1.28-49.69-2-51.55-2a45.85,45.85,0,0,0-29.8,11C947.24,1250.34,941.18,1261.71,941.09,1274.42Z"/><path class="cls-82" d="M940.9,1279.45c-1,12.93-8.24,241.87-7.87,253.4-.08.94-.41,27.45.36,28.75,1.82,23.54,22.22,44.07,45.7,44.29l40.79.78c4,.31,38.46-1.67,38.7-4.72,20.66,0,38.41-25,38.41-45.68L1093.55,1411c.55-4.57-5.4-121.44-8.46-124.88-3.53-24.82-24.77-42.78-49.18-46-1.77-1.53-48.15-2.39-50.38-2.43a45.4,45.4,0,0,0-29.23,10.62C947,1256,941,1267.05,940.9,1279.45Z"/><path class="cls-83" d="M940.7,1284.48c-1.19,15.08-8.14,235.26-7.71,248.7-.09,1.1-.31,26.55.6,28.07,2.12,23,22.27,43.24,45.19,43.49l40.91.91c4.71.37,38.17-1.94,38.45-5.5,19.62,0,36.68-25.46,36.68-45.08L1092,1413.54c.64-5.33-5.29-117.37-8.86-121.38-4.12-24.44-25.25-41.7-49.26-45.51-2.06-1.79-46.6-2.79-49.2-2.83A44.84,44.84,0,0,0,956,1254.1C946.84,1261.63,940.83,1272.39,940.7,1284.48Z"/><path class="cls-84" d="M940.51,1289.5c-1.37,17.25-8,228.65-7.56,244-.1,1.26-.21,25.66.83,27.39,2.42,22.5,22.34,42.41,44.7,42.7l41,1c5.38.42,37.87-2.21,38.19-6.29,18.59,0,35-25.9,35-44.49l-2.25-137.77c.73-6.09-5.18-113.3-9.26-117.89-4.7-24-25.74-40.62-49.34-45-2.34-2-45-3.18-48-3.24a44.41,44.41,0,0,0-28.09,10C946.63,1267.27,940.66,1277.73,940.51,1289.5Z"/><path class="cls-85" d="M940.32,1294.53c-1.54,19.4-8,222-7.41,239.32-.11,1.41-.1,24.75,1.06,26.7,2.73,22,22.4,41.58,44.2,41.91l41.14,1.17c6.06.47,37.57-2.49,37.93-7.08,17.56,0,33.25-26.33,33.25-43.89l-1.65-134c.82-6.85-5.07-109.23-9.66-114.39-5.29-23.67-26.22-39.55-49.41-44.44-2.64-2.3-43.5-3.58-46.85-3.64a43.87,43.87,0,0,0-27.51,9.61C946.43,1272.91,940.48,1283.07,940.32,1294.53Z"/><path class="cls-86" d="M940.12,1299.56c-1.7,21.55-7.86,215.41-7.25,234.62-.12,1.56,0,23.86,1.3,26,3,21.46,22.45,40.74,43.69,41.11l41.27,1.3c6.73.52,37.27-2.77,37.67-7.87,16.52,0,31.53-26.77,31.53-43.29l-1.06-130.27c.91-7.61-5-105.16-10-110.89-5.88-23.3-26.71-38.47-49.5-43.91-2.93-2.55-42-4-45.67-4.05a43.46,43.46,0,0,0-26.94,9.28C946.23,1278.55,940.31,1288.41,940.12,1299.56Z"/><path class="cls-87" d="M939.93,1304.58c-1.88,23.71-7.77,208.8-7.1,229.93-.13,1.72.1,23,1.53,25.35,3.33,20.94,22.52,39.91,43.19,40.32l41.39,1.43c7.4.58,37-3,37.41-8.66,15.49,0,29.82-27.2,29.82-42.7l-.47-126.5c1-8.38-4.84-101.1-10.45-107.41-6.46-22.91-27.2-37.39-49.57-43.37-3.23-2.81-40.41-4.38-44.5-4.45a43,43,0,0,0-26.37,8.94C946,1284.19,940.13,1293.75,939.93,1304.58Z"/><path class="cls-88" d="M939.74,1309.61c-2,25.86-7.68,202.18-7,225.23-.15,1.88.21,22.07,1.76,24.67,3.64,20.42,22.58,39.08,42.69,39.53l41.51,1.55c8.08.64,36.68-3.32,37.15-9.44,14.46,0,28.1-27.64,28.1-42.1l.13-122.75c1.1-9.15-4.73-97-10.85-103.91-7-22.53-27.68-36.32-49.65-42.84-3.52-3.07-38.86-4.78-43.32-4.86a42.46,42.46,0,0,0-25.79,8.62C945.82,1289.83,940,1299.09,939.74,1309.61Z"/><path class="cls-89" d="M939.55,1314.64c-2.22,28-7.59,195.56-6.8,220.53-.16,2,.31,21.17,2,24,3.93,19.9,22.63,38.25,42.18,38.73l41.63,1.69c8.75.69,36.38-3.6,36.9-10.22,13.42,0,26.38-28.09,26.38-41.51l.72-119c1.19-9.91-4.62-93-11.25-100.42-7.63-22.14-28.16-35.23-49.73-42.3-3.81-3.32-37.31-5.17-42.15-5.26a42,42,0,0,0-25.21,8.28C945.62,1295.47,939.78,1304.43,939.55,1314.64Z"/><path class="cls-90" d="M939.35,1319.66c-2.39,30.18-7.49,188.95-6.64,215.85-.17,2.19.41,20.26,2.23,23.3,4.24,19.38,22.7,37.43,41.68,37.94l41.76,1.82c9.42.74,36.07-3.88,36.63-11,12.39,0,24.66-28.52,24.66-40.92L1081,1431.4c1.28-10.67-4.5-88.9-11.64-96.92-8.23-21.76-28.65-34.16-49.81-41.77-4.11-3.58-35.77-5.57-41-5.67a41.75,41.75,0,0,0-24.64,8C945.42,1301.11,939.61,1309.78,939.35,1319.66Z"/><path class="cls-91" d="M939.16,1324.69c-2.56,32.33-7.4,182.33-6.49,211.15-.18,2.35.52,19.37,2.46,22.62,4.54,18.87,22.76,36.6,41.19,37.15l41.87,2c10.09.79,35.78-4.16,36.37-11.8,11.36,0,23-29,23-40.32l1.91-111.49c1.37-11.43-4.39-84.83-12-93.43-8.81-21.37-29.14-33.08-49.89-41.23-4.4-3.83-34.22-6-39.8-6.07a41.21,41.21,0,0,0-24.06,7.61C945.21,1306.75,939.43,1315.12,939.16,1324.69Z"/><path class="cls-92" d="M939,1329.71c-2.74,34.49-7.32,175.72-6.34,206.46-.19,2.51.62,18.47,2.69,21.94,4.85,18.35,22.82,35.77,40.69,36.36l42,2.08c10.77.84,35.48-4.44,36.12-12.59,10.33,0,21.23-29.4,21.23-39.72l2.5-107.74c1.46-12.19-4.28-80.76-12.44-89.93-9.4-21-29.62-32-50-40.71-4.7-4.08-32.68-6.36-38.63-6.46a40.83,40.83,0,0,0-23.49,7.27C945,1312.39,939.26,1320.46,939,1329.71Z"/><path class="cls-93" d="M938.77,1334.74c-2.9,36.64-7.22,169.1-6.18,201.76-.2,2.66.72,17.58,2.93,21.26,5.14,17.83,22.88,34.94,40.18,35.57l42.12,2.2c11.43.9,35.17-4.71,35.85-13.37,9.3,0,19.51-29.83,19.51-39.13l3.1-104c1.55-13-4.17-76.69-12.84-86.43-10-20.61-30.1-30.93-50-40.18-5-4.33-31.13-6.76-37.45-6.87a40.49,40.49,0,0,0-22.92,6.94C944.8,1318,939.09,1325.8,938.77,1334.74Z"/><path class="cls-94" d="M938.58,1339.77c-3.07,38.79-7.13,162.48-6,197.06-.22,2.82.83,16.68,3.16,20.58,5.45,17.31,22.94,34.11,39.68,34.77l42.24,2.34c12.11,1,34.88-5,35.59-14.16,8.27,0,17.8-30.27,17.8-38.53l3.69-100.23c1.64-13.71-4-72.62-13.23-82.94-10.57-20.22-30.6-29.84-50.12-39.64-5.29-4.59-29.59-7.15-36.28-7.27a40.09,40.09,0,0,0-22.34,6.6C944.6,1323.67,938.91,1331.14,938.58,1339.77Z"/><path class="cls-95" d="M938.39,1344.79c-3.25,41-7,155.88-5.88,192.38-.23,3,.93,15.78,3.39,19.9,5.75,16.78,23,33.27,39.18,34l42.36,2.47c12.79,1,34.58-5.26,35.34-15,7.23,0,16.07-30.7,16.07-37.93l4.28-96.48c1.74-14.47-3.93-68.55-13.62-79.44-11.16-19.84-31.08-28.77-50.2-39.11-5.58-4.84-28-7.55-35.1-7.68a39.73,39.73,0,0,0-21.77,6.28C944.39,1329.3,938.74,1336.48,938.39,1344.79Z"/><path class="cls-96" d="M938.19,1349.82c-3.41,43.11-6.94,149.26-5.72,187.68-.24,3.13,1,14.88,3.63,19.22,6,16.27,23.06,32.44,38.67,33.18l42.48,2.6c13.46,1,34.28-5.54,35.08-15.73,6.2,0,14.36-31.15,14.36-37.35l4.87-92.72c1.84-15.23-3.82-64.48-14-76-11.74-19.45-31.56-27.69-50.28-38.57-5.87-5.1-26.48-8-33.92-8.08a39.47,39.47,0,0,0-21.2,5.94C944.19,1334.94,938.56,1341.82,938.19,1349.82Z"/><path class="cls-97" d="M938,1354.85c-3.58,45.26-6.85,142.64-5.57,183-.25,3.29,1.14,14,3.86,18.54,6.35,15.75,23.12,31.61,38.17,32.39l42.61,2.73c14.13,1.1,34-5.82,34.81-16.52,5.17,0,12.65-31.59,12.65-36.75l5.46-89c1.93-16-3.7-60.41-14.42-72.45-12.33-19.07-32-26.61-50.35-38-6.17-5.35-24.94-8.35-32.75-8.49a39.17,39.17,0,0,0-20.62,5.61C944,1340.57,938.39,1347.16,938,1354.85Z"/><path class="cls-98" d="M937.81,1359.87c-3.76,47.42-6.76,136-5.41,178.29-.27,3.45,1.23,13.09,4.08,17.86,6.66,15.23,23.18,30.79,37.68,31.6l42.72,2.85c14.8,1.16,33.68-6.09,34.56-17.3,4.13,0,10.92-32,10.92-36.15l6.06-85.22c2-16.76-3.59-56.35-14.81-69-12.92-18.68-32.54-25.53-50.44-37.5-6.46-5.61-23.39-8.75-31.58-8.89a39,39,0,0,0-20,5.27C943.77,1346.21,938.21,1352.5,937.81,1359.87Z"/><path class="cls-99" d="M937.62,1364.9c-3.93,49.57-6.67,129.41-5.26,173.59-.28,3.61,1.33,12.19,4.31,17.18,7,14.71,23.25,30,37.18,30.8l42.84,3c15.48,1.21,33.38-6.37,34.3-18.09,3.1,0,9.21-32.46,9.21-35.56l6.65-81.46c2.11-17.52-3.48-52.28-15.21-65.46-13.51-18.3-33-24.46-50.51-37-6.75-5.87-21.85-9.14-30.41-9.3a38.83,38.83,0,0,0-19.47,4.94C943.57,1351.84,938,1357.85,937.62,1364.9Z"/><path class="cls-78" d="M937.42,1369.93c-4.1,51.72-6.57,122.79-5.1,168.9-.3,3.75,1.44,11.29,4.55,16.49,7.26,14.2,23.3,29.13,36.67,30l43,3.12c16.15,1.26,33.09-6.65,34-18.88,2.07,0,7.5-32.9,7.5-35l7.24-77.71c2.2-18.28-3.37-48.21-15.61-62-14.09-17.92-33.5-23.38-50.59-36.44-7-6.12-20.3-9.54-29.23-9.7a38.59,38.59,0,0,0-18.89,4.6C943.36,1357.48,937.86,1363.19,937.42,1369.93Z"/><path class="cls-100" d="M937.23,1375c-4.27,53.89-6.48,116.18-5,164.21-.31,3.91,1.54,10.39,4.78,15.81,7.57,13.68,23.36,28.3,36.17,29.22l43.09,3.25c16.82,1.31,32.78-6.93,33.78-19.67,1,0,5.77-33.33,5.77-34.36l7.84-74c2.29-19-3.25-44.15-16-58.48-14.67-17.53-34-22.3-50.66-35.9-7.34-6.38-18.76-9.94-28.06-10.11a38.56,38.56,0,0,0-18.32,4.27C943.15,1363.1,937.69,1368.53,937.23,1375Z"/><path class="cls-67" d="M995,1371.66c-12.39-10.77-29.9-13.82-44.63-6.57-7.42,3.65-12.85,8.78-13.32,14.89-4.44,56-6.39,109.56-4.8,159.51-1.06,13.58,23.19,42.19,40.68,43.56l43.21,3.38c17.49,1.36,32.48-7.21,33.52-20.46l12.49-104c2.38-19.81-3.14-40.08-16.4-55C1030.47,1389.88,1011.26,1385.81,995,1371.66Z"/><path class="cls-28" d="M233.55,1024.7,100.34,1238A23.18,23.18,0,1,1,61,1213.39l133.21-213.25a23.18,23.18,0,0,1,39.32,24.56Z"/><path class="cls-55" d="M80.66,1239a13.37,13.37,0,0,1-11.31-20.46l133.2-213.24a13.37,13.37,0,1,1,22.68,14.16L92,1232.75A13.31,13.31,0,0,1,80.66,1239Z"/><path class="cls-56" d="M84.12,1232.58a12.37,12.37,0,0,1-10.48-18.92L199.58,1012.2a12.37,12.37,0,1,1,21,13.11L94.63,1226.76A12.3,12.3,0,0,1,84.12,1232.58Z"/><path class="cls-57" d="M87.57,1226.13a11.38,11.38,0,0,1-9.64-17.4l118.68-189.66a11.38,11.38,0,1,1,19.31,12L97.25,1220.78A11.36,11.36,0,0,1,87.57,1226.13Z"/><path class="cls-58" d="M91,1219.68a10.37,10.37,0,0,1-8.79-15.88l111.41-177.87a10.39,10.39,0,0,1,17.63,11L99.86,1214.8A10.37,10.37,0,0,1,91,1219.68Z"/><path class="cls-59" d="M94.48,1213.23a9.38,9.38,0,0,1-8-14.36L190.66,1032.8a9.41,9.41,0,0,1,17.14,2.86,9.24,9.24,0,0,1-1.19,7.08L102.47,1208.81A9.36,9.36,0,0,1,94.48,1213.23Z"/><path class="cls-60" d="M97.93,1206.77a8.44,8.44,0,0,1-4.44-1.27,8.38,8.38,0,0,1-2.68-11.56l96.88-154.28a8.44,8.44,0,0,1,11.59-2.67,8.38,8.38,0,0,1,2.68,11.56l-96.88,154.28A8.38,8.38,0,0,1,97.93,1206.77Z"/><path class="cls-61" d="M101.38,1200.32a7.43,7.43,0,0,1-3.91-1.12A7.38,7.38,0,0,1,95.11,1189l89.61-142.48a7.43,7.43,0,0,1,10.22-2.36,7.39,7.39,0,0,1,2.37,10.19l-89.62,142.48A7.36,7.36,0,0,1,101.38,1200.32Z"/><path class="cls-62" d="M104.84,1193.87a6.45,6.45,0,0,1-3.39-1,6.37,6.37,0,0,1-2.86-4,6.29,6.29,0,0,1,.81-4.82l82.35-130.7a6.42,6.42,0,0,1,8.85-2,6.35,6.35,0,0,1,2.05,8.81l-82.34,130.69A6.4,6.4,0,0,1,104.84,1193.87Z"/><path class="cls-63" d="M108.29,1187.42a5.46,5.46,0,0,1-2.86-.82,5.37,5.37,0,0,1-2.42-3.37,5.3,5.3,0,0,1,.68-4.07l75.08-118.9a5.46,5.46,0,0,1,7.49-1.72A5.36,5.36,0,0,1,188,1066l-75.08,118.9A5.41,5.41,0,0,1,108.29,1187.42Z"/><path class="cls-64" d="M111.74,1181a4.47,4.47,0,0,1-2.33-.67,4.38,4.38,0,0,1-2-2.75,4.32,4.32,0,0,1,.57-3.32l67.81-107.11a4.48,4.48,0,0,1,6.13-1.4,4.38,4.38,0,0,1,2,2.75,4.32,4.32,0,0,1-.56,3.32l-67.82,107.1A4.41,4.41,0,0,1,111.74,1181Z"/><path class="cls-65" d="M115.2,1174.51a3.55,3.55,0,0,1-1.82-.51,3.38,3.38,0,0,1-1.1-4.7L172.83,1074a3.47,3.47,0,0,1,4.76-1.09,3.38,3.38,0,0,1,1.54,2.13,3.26,3.26,0,0,1-.44,2.56l-60.55,95.32A3.43,3.43,0,0,1,115.2,1174.51Z"/><path class="cls-66" d="M118.65,1168.06a2.47,2.47,0,0,1-1.29-.37,2.38,2.38,0,0,1-.79-3.32l53.29-83.52a2.51,2.51,0,0,1,3.39-.77,2.38,2.38,0,0,1,1.1,1.51,2.31,2.31,0,0,1-.31,1.81l-53.28,83.52A2.45,2.45,0,0,1,118.65,1168.06Z"/><path class="cls-67" d="M260.59,887.81s28.35,87.08,0,178.67c0,0-104.26-8.58-104.26-89.34S260.59,887.81,260.59,887.81Z"/><path class="cls-68" d="M255.9,1059.31c-8.7-1.28-27-4.77-45-13.28-31.9-15.08-48.07-38.25-48.07-68.89,0-50.1,44.73-70.3,73.84-78.13a18.89,18.89,0,0,1,23.43,14.64C266.17,944.37,272.63,1000.83,255.9,1059.31Z"/><path class="cls-69" d="M260,912.76c5.65,29.3,11.62,82.79-4,138.31-8.15.07-26.14-2.44-43.61-10.8-30.69-14.65-46.19-37-46.07-66.55.18-48.1,43.1-67.45,71.22-75a19.24,19.24,0,0,1,3.93-.62A18,18,0,0,1,260,912.76Z"/><path class="cls-70" d="M259.94,911.86c5.26,27.89,10.76,78.4-3.83,131-7.59,1.42-25.29-.11-42.25-8.32-29.48-14.23-44.3-35.84-44.07-64.21.36-46.11,41.47-64.6,68.61-71.77a18.89,18.89,0,0,1,3.75-.6A17.09,17.09,0,0,1,259.94,911.86Z"/><path class="cls-71" d="M259.84,911c4.88,26.46,9.89,74-3.63,123.63-7,2.76-24.45,2.21-40.89-5.84-28.27-13.82-42.42-34.64-42.07-61.89.54-44.11,39.84-61.74,66-68.57a18.83,18.83,0,0,1,3.58-.59A16.19,16.19,0,0,1,259.84,911Z"/><path class="cls-72" d="M259.74,910.07c4.49,25,9,69.62-3.43,116.29-6.47,4.11-23.61,4.54-39.53-3.36-27.06-13.39-40.54-33.43-40.07-59.55.72-42.11,38.21-58.89,63.38-65.39a20.46,20.46,0,0,1,3.4-.57A15.28,15.28,0,0,1,259.74,910.07Z"/><path class="cls-73" d="M259.65,909.18c4.1,23.62,8.15,65.22-3.23,109-5.92,5.46-22.77,6.87-38.18-.89-25.85-13-38.65-32.22-38.07-57.21.9-40.12,36.58-56,60.76-62.21a22.09,22.09,0,0,1,3.23-.56A14.41,14.41,0,0,1,259.65,909.18Z"/><path class="cls-74" d="M259.55,908.28c3.71,22.21,7.29,60.83-3,101.61-5.37,6.81-21.93,9.2-36.82,1.59-24.63-12.55-36.77-31-36.07-54.88,1.08-38.11,35-53.19,58.15-59a22.11,22.11,0,0,1,3.06-.55A13.5,13.5,0,0,1,259.55,908.28Z"/><path class="cls-75" d="M259.45,907.39c3.33,20.78,6.42,56.43-2.83,94.27-4.81,8.15-21.09,11.52-35.46,4.06-23.42-12.12-34.89-29.8-34.07-52.54,1.26-36.12,33.33-50.34,55.53-55.83a23.18,23.18,0,0,1,2.89-.53A12.62,12.62,0,0,1,259.45,907.39Z"/><path class="cls-76" d="M259.35,906.49c2.95,19.37,5.56,52-2.62,86.93-4.26,9.5-20.25,13.85-34.11,6.55-22.21-11.71-33-28.6-32.07-50.21,1.44-34.12,31.7-47.49,52.92-52.64a24.36,24.36,0,0,1,2.71-.52A11.72,11.72,0,0,1,259.35,906.49Z"/><path class="cls-77" d="M259.25,905.6c2.56,17.95,4.69,47.65-2.42,79.59-3.7,10.84-19.41,16.17-32.75,9-21-11.29-31.12-27.39-30.07-47.88,1.62-32.12,30.07-44.64,50.3-49.45.86-.21,1.71-.37,2.54-.5A10.85,10.85,0,0,1,259.25,905.6Z"/><path class="cls-78" d="M259.15,904.7C261.33,921.23,263,948,256.93,977c-3.14,12.19-18.57,18.5-31.39,11.5-19.79-10.86-29.24-26.19-28.07-45.54,1.8-30.13,28.44-41.79,47.69-46.27.8-.18,1.59-.35,2.36-.49A10,10,0,0,1,259.15,904.7Z"/><path class="cls-67" d="M257,968.72c-2.59,13.54-17.73,20.83-29.78,14.12l-.26-.15c-18.58-10.44-27.35-25-26.07-43.2,2.06-29.28,28.86-39.79,47.26-43.56a9.13,9.13,0,0,1,10.86,7.88A216.64,216.64,0,0,1,257,968.72Z"/><path class="cls-67" d="M135.56,1618.19H55.25A55.24,55.24,0,0,1,0,1562.94l13.08-313.65a55.25,55.25,0,0,1,55.25-55.24h57.42A55.25,55.25,0,0,1,181,1249.29l9.81,313.65A55.24,55.24,0,0,1,135.56,1618.19Z"/><path class="cls-66" d="M55.25,1613c-26.86,0-48.71-22.52-48.71-49.38l13.08-313.51A48.93,48.93,0,0,1,68.33,1201h57.42a48.58,48.58,0,0,1,48.71,48.5l9.81,314.43c0,26.65-21.85,49.07-48.71,49.07Z"/><path class="cls-79" d="M174.65,1254.32c.17,2.15,8.7,275,8.64,276.87,0,.16.92,31.94.79,32.16-.31,26.13-21.91,48.21-48.21,48.25l-40.17.13c-.68,0-40-.28-40-.79-25.82,0-47-22.83-47-48.65l6.41-164c-.09-.76,6-141.78,6.48-142.36a49.94,49.94,0,0,1,48.79-48.71c.29-.26,55.87-.4,56.24-.41a48,48,0,0,1,32.11,12.29A47.34,47.34,0,0,1,174.65,1254.32Z"/><path class="cls-68" d="M174.84,1259.34c.34,4.32,8.61,268.34,8.49,272.18,0,.32.82,31,.56,31.48-.61,25.61-22,47.38-47.71,47.45l-40.3.26c-1.34.11-39.66-.55-39.74-1.57-24.79,0-45.27-23.27-45.27-48.06l5.81-160.29c-.18-1.52,5.85-137.71,6.87-138.86,1.18-26.36,22.83-47.09,48.87-48.18.59-.51,54.33-.8,55.07-.81a47.37,47.37,0,0,1,31.53,12A46,46,0,0,1,174.84,1259.34Z"/><path class="cls-80" d="M175,1264.37c.52,6.47,8.52,261.72,8.34,267.49,0,.46.71,30.14.32,30.79-.91,25.09-22,46.55-47.2,46.66l-40.42.39c-2,.16-39.37-.83-39.48-2.36-23.76,0-43.56-23.7-43.56-47.46l5.22-156.54C18,1401.05,24,1269.69,25.52,1268c1.77-26,23.31-46,49-47.65.88-.77,52.78-1.19,53.89-1.21a46.83,46.83,0,0,1,31,11.61A44.76,44.76,0,0,1,175,1264.37Z"/><path class="cls-69" d="M175.23,1269.4c.68,8.62,8.42,255.1,8.17,262.79,0,.62.62,29.24.1,30.11-1.21,24.57-22.09,45.72-46.7,45.87l-40.54.52c-2.69.21-39.07-1.11-39.23-3.15-22.72,0-41.83-24.14-41.83-46.86l4.62-152.79c-.37-3.05,5.63-129.58,7.67-131.87,2.35-25.59,23.8-44.94,49-47.11,1.18-1,51.24-1.59,52.73-1.62a46.25,46.25,0,0,1,30.38,11.29A43.55,43.55,0,0,1,175.23,1269.4Z"/><path class="cls-81" d="M175.42,1274.42c.85,10.78,8.33,248.49,8,258.1.06.78.52,28.35-.13,29.43-1.52,24.06-22.16,44.89-46.2,45.08l-40.66.65c-3.37.26-38.77-1.39-39-3.94-21.69,0-40.12-24.58-40.12-46.27l4-149c-.46-3.81,5.52-125.51,8.07-128.37,2.94-25.21,24.28-43.86,49.1-46.58,1.47-1.28,49.69-2,51.55-2a45.85,45.85,0,0,1,29.8,11C169.27,1250.34,175.33,1261.71,175.42,1274.42Z"/><path class="cls-82" d="M175.61,1279.45c1,12.93,8.24,241.87,7.87,253.4.08.94.41,27.45-.37,28.75-1.81,23.54-22.21,44.07-45.69,44.29l-40.79.78c-4,.31-38.47-1.67-38.7-4.72-20.66,0-38.41-25-38.41-45.68L23,1411c-.55-4.57,5.4-121.44,8.46-124.88,3.53-24.82,24.77-42.78,49.18-46,1.77-1.53,48.15-2.39,50.38-2.43a45.4,45.4,0,0,1,29.23,10.62C169.47,1256,175.5,1267.05,175.61,1279.45Z"/><path class="cls-83" d="M175.81,1284.48c1.19,15.08,8.14,235.26,7.71,248.7.09,1.1.31,26.55-.6,28.07-2.12,23-22.27,43.24-45.2,43.49l-40.9.91c-4.71.37-38.17-1.94-38.45-5.5-19.62,0-36.68-25.46-36.68-45.08l2.84-141.53c-.64-5.33,5.29-117.37,8.86-121.38,4.12-24.44,25.25-41.7,49.26-45.51,2-1.79,46.59-2.79,49.2-2.83a44.84,44.84,0,0,1,28.66,10.28C169.67,1261.63,175.68,1272.39,175.81,1284.48Z"/><path class="cls-84" d="M176,1289.5c1.37,17.25,8.05,228.65,7.56,244,.1,1.26.21,25.66-.83,27.39-2.42,22.5-22.34,42.41-44.7,42.7l-41,1c-5.38.42-37.87-2.21-38.19-6.29-18.59,0-35-25.9-35-44.49l2.25-137.77c-.73-6.09,5.18-113.3,9.26-117.89,4.7-24,25.74-40.62,49.34-45,2.34-2,45-3.18,48-3.24a44.36,44.36,0,0,1,28.08,10C169.87,1267.27,175.85,1277.73,176,1289.5Z"/><path class="cls-85" d="M176.19,1294.53c1.54,19.4,8,222,7.41,239.32.11,1.41.1,24.75-1.06,26.7-2.73,22-22.4,41.58-44.2,41.91l-41.14,1.17c-6.06.47-37.58-2.49-37.93-7.08-17.56,0-33.25-26.33-33.25-43.89l1.65-134c-.82-6.85,5.07-109.23,9.66-114.39,5.28-23.67,26.22-39.55,49.41-44.44,2.64-2.3,43.5-3.58,46.85-3.64a43.87,43.87,0,0,1,27.51,9.61C170.08,1272.91,176,1283.07,176.19,1294.53Z"/><path class="cls-86" d="M176.39,1299.56c1.7,21.55,7.86,215.41,7.25,234.62.12,1.56,0,23.86-1.3,26-3,21.46-22.45,40.74-43.69,41.11l-41.27,1.3c-6.73.52-37.27-2.77-37.67-7.87-16.52,0-31.53-26.77-31.53-43.29l1.06-130.27c-.91-7.61,4.95-105.16,10.05-110.89,5.88-23.3,26.71-38.47,49.5-43.91,2.93-2.55,42-4,45.67-4.05a43.46,43.46,0,0,1,26.94,9.28C170.28,1278.55,176.2,1288.41,176.39,1299.56Z"/><path class="cls-87" d="M176.58,1304.58c1.88,23.71,7.77,208.8,7.1,229.93.13,1.72-.1,23-1.53,25.35-3.33,20.94-22.52,39.91-43.19,40.32l-41.39,1.43c-7.4.58-37-3-37.41-8.66-15.49,0-29.82-27.2-29.82-42.7l.47-126.5c-1-8.38,4.84-101.1,10.45-107.41,6.46-22.91,27.2-37.39,49.57-43.37,3.23-2.81,40.41-4.38,44.5-4.45a43,43,0,0,1,26.36,8.94C170.48,1284.19,176.38,1293.75,176.58,1304.58Z"/><path class="cls-88" d="M176.77,1309.61c2,25.86,7.68,202.18,6.95,225.23.15,1.88-.21,22.07-1.76,24.67-3.64,20.42-22.58,39.08-42.69,39.53l-41.51,1.55c-8.08.64-36.68-3.32-37.15-9.44-14.46,0-28.1-27.64-28.1-42.1l-.13-122.75c-1.1-9.15,4.73-97,10.85-103.91,7.05-22.53,27.68-36.32,49.65-42.84,3.52-3.07,38.86-4.78,43.32-4.86a42.46,42.46,0,0,1,25.79,8.62C170.68,1289.83,176.55,1299.09,176.77,1309.61Z"/><path class="cls-89" d="M177,1314.64c2.22,28,7.59,195.56,6.8,220.53.16,2-.31,21.17-2,24-3.93,19.9-22.63,38.25-42.18,38.73l-41.64,1.69c-8.74.69-36.37-3.6-36.89-10.22-13.42,0-26.38-28.09-26.38-41.51l-.72-119c-1.19-9.91,4.61-93,11.25-100.42,7.63-22.14,28.16-35.23,49.72-42.3,3.82-3.32,37.32-5.17,42.15-5.26a42,42,0,0,1,25.22,8.28C170.89,1295.47,176.73,1304.43,177,1314.64Z"/><path class="cls-90" d="M177.16,1319.66c2.39,30.18,7.49,188.95,6.64,215.85.17,2.19-.41,20.26-2.23,23.3-4.24,19.38-22.7,37.43-41.69,37.94l-41.75,1.82c-9.42.74-36.07-3.88-36.63-11-12.4,0-24.66-28.52-24.66-40.92L35.52,1431.4c-1.28-10.67,4.5-88.9,11.64-96.92,8.23-21.76,28.65-34.16,49.81-41.77,4.11-3.58,35.77-5.57,41-5.67a41.75,41.75,0,0,1,24.64,8C171.09,1301.11,176.9,1309.78,177.16,1319.66Z"/><path class="cls-91" d="M177.35,1324.69c2.56,32.33,7.4,182.33,6.49,211.15.18,2.35-.52,19.37-2.46,22.62-4.54,18.87-22.76,36.6-41.19,37.15l-41.87,2c-10.09.79-35.78-4.16-36.37-11.8-11.37,0-23-29-23-40.32L37.09,1434c-1.37-11.43,4.39-84.83,12-93.43,8.81-21.37,29.14-33.08,49.89-41.23,4.4-3.83,34.22-6,39.8-6.07a41.21,41.21,0,0,1,24.06,7.61C171.3,1306.75,177.07,1315.12,177.35,1324.69Z"/><path class="cls-92" d="M177.54,1329.71c2.74,34.49,7.31,175.72,6.34,206.46.19,2.51-.62,18.47-2.69,21.94-4.85,18.35-22.82,35.77-40.69,36.36l-42,2.08c-10.77.84-35.48-4.44-36.12-12.59-10.33,0-21.23-29.4-21.23-39.72l-2.5-107.74c-1.46-12.19,4.28-80.76,12.44-89.93,9.39-21,29.62-32,50-40.71,4.7-4.08,32.68-6.36,38.63-6.46a40.83,40.83,0,0,1,23.49,7.27C171.5,1312.39,177.25,1320.46,177.54,1329.71Z"/><path class="cls-93" d="M177.74,1334.74c2.9,36.64,7.22,169.1,6.18,201.76.2,2.66-.72,17.58-2.93,21.26-5.14,17.83-22.88,34.94-40.18,35.57l-42.12,2.2c-11.43.9-35.17-4.71-35.85-13.37-9.3,0-19.51-29.83-19.51-39.13l-3.1-104c-1.55-13,4.16-76.69,12.84-86.43,10-20.61,30.1-30.93,50-40.18,5-4.33,31.13-6.76,37.45-6.87a40.49,40.49,0,0,1,22.92,6.94C171.71,1318,177.42,1325.8,177.74,1334.74Z"/><path class="cls-94" d="M177.93,1339.77c3.07,38.79,7.13,162.48,6,197.06.22,2.82-.83,16.68-3.16,20.58-5.45,17.31-22.94,34.11-39.68,34.77l-42.24,2.34c-12.11,1-34.88-5-35.59-14.16-8.27,0-17.8-30.27-17.8-38.53L41.8,1441.6c-1.64-13.71,4.05-72.62,13.23-82.94,10.57-20.22,30.59-29.84,50.12-39.64,5.29-4.59,29.58-7.15,36.28-7.27a40.11,40.11,0,0,1,22.34,6.6C171.91,1323.67,177.6,1331.14,177.93,1339.77Z"/><path class="cls-95" d="M178.12,1344.79c3.25,41,7,155.88,5.88,192.38.23,3-.93,15.78-3.39,19.9-5.75,16.78-23,33.27-39.18,34l-42.36,2.47c-12.79,1-34.58-5.26-35.34-15-7.23,0-16.08-30.7-16.08-37.93l-4.28-96.48c-1.74-14.47,3.94-68.55,13.63-79.44,11.16-19.84,31.08-28.77,50.2-39.11,5.58-4.84,28-7.55,35.1-7.68a39.73,39.73,0,0,1,21.77,6.28C172.12,1329.3,177.77,1336.48,178.12,1344.79Z"/><path class="cls-96" d="M178.31,1349.82c3.42,43.11,6.95,149.26,5.73,187.68.24,3.13-1,14.88-3.63,19.22-6,16.27-23.06,32.44-38.67,33.18l-42.48,2.6c-13.46,1-34.28-5.54-35.08-15.73-6.2,0-14.36-31.15-14.36-37.35l-4.88-92.72c-1.83-15.23,3.83-64.48,14-76,11.74-19.45,31.56-27.69,50.27-38.57,5.88-5.1,26.49-8,33.93-8.08a39.47,39.47,0,0,1,21.2,5.94C172.32,1334.94,178,1341.82,178.31,1349.82Z"/><path class="cls-97" d="M178.51,1354.85c3.58,45.26,6.85,142.64,5.56,183,.26,3.29-1.13,14-3.85,18.54-6.35,15.75-23.12,31.61-38.18,32.39l-42.6,2.73c-14.13,1.1-34-5.82-34.81-16.52-5.17,0-12.65-31.59-12.65-36.75l-5.47-89c-1.92-16,3.71-60.41,14.43-72.45,12.33-19.07,32-26.61,50.35-38,6.17-5.35,24.94-8.35,32.75-8.49a39.17,39.17,0,0,1,20.62,5.61C172.53,1340.57,178.12,1347.16,178.51,1354.85Z"/><path class="cls-98" d="M178.7,1359.87c3.76,47.42,6.76,136,5.41,178.29.27,3.45-1.23,13.09-4.08,17.86-6.66,15.23-23.18,30.79-37.68,31.6l-42.72,2.85c-14.8,1.16-33.68-6.09-34.56-17.3-4.13,0-10.92-32-10.92-36.15l-6.06-85.22c-2-16.76,3.59-56.35,14.81-69,12.92-18.68,32.54-25.53,50.44-37.5,6.45-5.61,23.39-8.75,31.57-8.89a39,39,0,0,1,20.05,5.27C172.74,1346.21,178.3,1352.5,178.7,1359.87Z"/><path class="cls-99" d="M178.89,1364.9c3.93,49.57,6.67,129.41,5.26,173.59.28,3.61-1.33,12.19-4.31,17.18-7,14.71-23.25,30-37.18,30.8l-42.84,3c-15.48,1.21-33.38-6.37-34.3-18.09-3.1,0-9.21-32.46-9.21-35.56l-6.65-81.46c-2.11-17.52,3.48-52.28,15.21-65.46,13.51-18.3,33-24.46,50.51-37,6.75-5.87,21.85-9.14,30.41-9.3a38.83,38.83,0,0,1,19.47,4.94C172.94,1351.84,178.47,1357.85,178.89,1364.9Z"/><path class="cls-78" d="M179.09,1369.93c4.1,51.72,6.57,122.79,5.1,168.9.29,3.75-1.44,11.29-4.55,16.49-7.26,14.2-23.3,29.13-36.67,30l-43,3.12c-16.14,1.26-33.08-6.65-34-18.88-2.07,0-7.5-32.9-7.5-35l-7.24-77.71c-2.2-18.28,3.37-48.21,15.61-62,14.09-17.92,33.5-23.38,50.59-36.44,7-6.12,20.3-9.54,29.23-9.7a38.59,38.59,0,0,1,18.89,4.6C173.15,1357.48,178.65,1363.19,179.09,1369.93Z"/><path class="cls-100" d="M179.28,1375c4.27,53.89,6.48,116.18,4.95,164.21.31,3.91-1.54,10.39-4.78,15.81-7.57,13.68-23.36,28.3-36.17,29.22l-43.09,3.25c-16.82,1.31-32.78-6.93-33.78-19.67-1,0-5.77-33.33-5.77-34.36l-7.84-74c-2.29-19,3.25-44.15,16-58.48,14.67-17.53,34-22.3,50.66-35.9,7.34-6.38,18.76-9.94,28.06-10.11a38.56,38.56,0,0,1,18.32,4.27C173.36,1363.1,178.82,1368.53,179.28,1375Z"/><path class="cls-67" d="M121.52,1371.66c12.39-10.77,29.9-13.82,44.63-6.57,7.42,3.65,12.84,8.78,13.32,14.89,4.44,56,6.39,109.56,4.8,159.51,1,13.58-23.19,42.19-40.68,43.56l-43.21,3.38c-17.49,1.36-32.48-7.21-33.52-20.46L54.37,1462c-2.38-19.81,3.14-40.08,16.4-55C86,1389.88,105.25,1385.81,121.52,1371.66Z"/><path class="cls-67" d="M823.28,831c-64.11-10.84-185.39-29.47-264.21-29.47-79.07,0-201.54,18.74-265.49,29.58-24.48,4.14-42.8,25.33-42.8,50.17v345.58a195.34,195.34,0,0,0,45.67,125.48c45.06,53.75,102.22,123.13,143.77,175.36,10.07,12.65,22.76,22.68,36.08,30.6a162.51,162.51,0,0,0,165.79,0c13.3-7.92,26-18,36-30.59,41.13-51.7,96.78-120.2,141.61-173.71a196.78,196.78,0,0,0,46-126.38V881.27A51,51,0,0,0,823.28,831Z"/><path class="cls-66" d="M640.1,1548a153.15,153.15,0,0,1-161.73,0c-11.32-7.06-22-15.77-30.46-26.46-44.26-55.63-103.33-126.9-143.69-175.06-28.24-33.69-44-75.93-44-118.92V881.27c0-20.07,14.74-37.1,34.8-40.5,64.9-11,185.57-16.35,263.94-16.35,77.77,0,198.48,5.36,263.38,16.35a40.89,40.89,0,0,1,33.88,40.5V1227.6a185.33,185.33,0,0,1-42.9,118.92c-41.36,49.34-97.47,118.06-142.82,175.06C662,1532.25,651.37,1540.94,640.1,1548Z"/><path class="cls-79" d="M639.42,1534.12a152.8,152.8,0,0,1-159.88.05c-11.28-6.94-21.89-15.49-30.35-26-43.94-54.6-101.93-124.55-142-171.81a180.37,180.37,0,0,1-42.93-116.59V879.89a39.89,39.89,0,0,1,33.64-39.54C362.32,829.56,481.77,824,559.56,824c77.2,0,196,5.52,260.38,16.31,19.22,3.22,32.31,19.86,32.31,39.54v339.89c0,43-14.3,84.36-41.62,116.59-41.06,48.42-96.32,115.86-141.34,171.81A116.67,116.67,0,0,1,639.42,1534.12Z"/><path class="cls-68" d="M638.74,1520.25a152.49,152.49,0,0,1-158,0c-11.24-6.81-21.82-15.21-30.24-25.53-43.63-53.56-101-122.19-140.83-168.55A175.42,175.42,0,0,1,267.25,1212V878.52a38.91,38.91,0,0,1,33-38.6c64-10.58,182.45-16.25,259.66-16.25,76.62,0,195.54,5.67,259.5,16.25a39.16,39.16,0,0,1,32.86,38.6V1212a175.89,175.89,0,0,1-42.33,114.25c-40.77,47.5-96.17,113.66-140.88,168.55C660.64,1505.07,649.92,1513.45,638.74,1520.25Z"/><path class="cls-80" d="M638.06,1506.38a152.19,152.19,0,0,1-156.18,0c-11.2-6.67-21.75-14.91-30.13-25.06-43.31-52.52-101.65-119.82-141.15-165.29-27.5-31.71-43.35-71.46-43.35-111.92v-327c0-18.65,14.63-34.49,33.82-37.65,63.48-10.38,181.77-16.21,258.39-16.21,76,0,194,5.83,257.49,16.21a38.24,38.24,0,0,1,32.3,37.65v327a170.73,170.73,0,0,1-41.55,111.92c-40.47,46.58-95.27,111.47-139.65,165.29C659.68,1491.49,649.2,1499.71,638.06,1506.38Z"/><path class="cls-69" d="M637.38,1492.5a152.44,152.44,0,0,1-154.33,0c-11.15-6.57-21.68-14.63-30-24.59-43-51.5-100.76-117.47-140-162-27.26-31.05-42.81-70-42.81-109.58V875.78c0-18.19,14.26-33.63,33.16-36.71,63-10.17,180.33-16.16,256.37-16.16,75.47,0,192.11,6,255.12,16.16a37,37,0,0,1,31.35,36.71v320.56c0,40.37-14.17,79.28-40.76,109.58-40.18,45.66-94.38,109.27-138.44,162A114.07,114.07,0,0,1,637.38,1492.5Z"/><path class="cls-81" d="M636.7,1478.63a152.37,152.37,0,0,1-152.48,0c-11.11-6.45-21.61-14.35-29.91-24.13-42.68-50.46-99.87-115.11-138.8-158.79-27-30.38-42.26-68.47-42.26-107.23V874.41c0-17.72,13.89-32.76,32.5-35.76,62.53-10,178.9-16.12,254.36-16.12,74.88,0,191.7,6.15,254.23,16.12,18.07,2.92,31.91,18,31.91,35.76v314.12c0,39.5-15.13,77.58-41.48,107.23-39.88,44.75-94.22,107.08-138,158.79C658.52,1464.31,647.73,1472.2,636.7,1478.63Z"/><path class="cls-82" d="M636,1464.75a152.29,152.29,0,0,1-150.63,0c-11.07-6.31-21.53-14.06-29.8-23.65-42.37-49.43-98.48-112.76-137.12-155.54-26.75-29.72-41.22-67-41.22-104.9V873c0-17.25,13-31.89,31.34-34.82,62.06-9.76,177.22-16.06,252.09-16.06,74.31,0,189.67,6.3,251.73,16.06,17.79,2.84,30.84,17.49,30.84,34.82v307.67a156.88,156.88,0,0,1-40.69,104.9c-39.59,43.83-93.33,104.88-136.75,155.54C657.57,1450.72,647,1458.45,636,1464.75Z"/><path class="cls-83" d="M635.34,1450.88a152.33,152.33,0,0,1-148.79,0c-11-6.19-21.45-13.77-29.68-23.19-42.05-48.39-97.59-110.39-135.94-152.28-26.51-29.06-40.68-65.49-40.68-102.56V871.67c0-16.78,12.66-31,30.68-33.87,61.59-9.55,175.78-16,250.08-16,73.72,0,187.26,6.47,248.85,16,17.49,2.76,29.39,17,29.39,33.87V1172.9a151.39,151.39,0,0,1-39.41,102.56c-39.29,42.91-92.18,102.69-135.27,152.28C656.37,1437.13,646.28,1444.7,635.34,1450.88Z"/><path class="cls-84" d="M634.66,1437a152.38,152.38,0,0,1-146.94.06c-11-6.07-21.38-13.49-29.57-22.72-41.74-47.37-96.7-108-134.76-149-26.26-28.4-40.14-64-40.14-100.23V870.3c0-16.31,12.29-30.16,30-32.92,61.11-9.35,174.35-16,248.06-16,73.15,0,186.85,6.63,248,16,17.21,2.68,30,16.53,30,32.92v294.78c0,36.92-14.51,72.52-40.12,100.23-39,42-92,100.49-134.81,149C656.16,1423.54,645.56,1431,634.66,1437Z"/><path class="cls-85" d="M634,1423.13a152.5,152.5,0,0,1-145.09,0c-10.94-5.93-21.31-13.2-29.46-22.25-41.42-46.33-97.3-105.68-135.08-145.78-26-27.73-41.1-62.5-41.1-97.88V868.93c0-15.84,13.42-29.29,30.86-32C374.75,827.81,487.78,821,560.9,821c72.58,0,185.33,6.79,246,15.93,16.92,2.61,29.38,16.06,29.38,32v288.34c0,36.06-14,70.82-39.33,97.88-38.71,41.08-91.14,98.3-133.59,145.78C655.21,1410,644.83,1417.2,634,1423.13Z"/><path class="cls-86" d="M633.3,1409.25a152.63,152.63,0,0,1-143.24.06c-10.9-5.81-21.24-12.92-29.34-21.79C419.61,1342.23,364.8,1284.2,327.31,1245c-25.77-27.07-40.06-61-40.06-95.55V867.56c0-15.37,12.55-28.43,29.7-31,60.17-8.94,172-15.88,244.53-15.88,72,0,183.29,6.94,243.46,15.88,16.63,2.53,28.31,15.58,28.31,31v281.89A138,138,0,0,1,794.7,1245c-38.4,40.16-90.24,96.1-132.37,142.52C654.25,1396.36,644.11,1403.46,633.3,1409.25Z"/><path class="cls-87" d="M632.62,1395.38a152.87,152.87,0,0,1-141.39.06c-10.86-5.68-21.17-12.64-29.23-21.32-40.8-44.26-95-101-132.24-139.27-25.51-26.42-39.51-59.52-39.51-93.21V866.19c0-14.91,12.19-27.56,29-30.09,59.69-8.73,170.55-15.83,242.51-15.83,71.42,0,182.89,7.1,242.58,15.83,16.35,2.45,28.87,15.11,28.87,30.09v275.45c0,34.34-14.38,67.44-39.26,93.21-38.11,39.24-90.09,93.91-131.9,139.27C654.05,1382.78,643.38,1389.71,632.62,1395.38Z"/><path class="cls-88" d="M631.94,1381.5a153.15,153.15,0,0,1-139.54.07c-10.82-5.56-21.1-12.35-29.12-20.86-40.48-43.22-94.14-98.6-131.06-136-25.26-25.76-39-58-39-90.87v-269c0-14.44,11.82-26.7,28.38-29.14,59.22-8.53,169.12-15.79,240.5-15.79,70.83,0,180.48,7.26,239.69,15.79,16.06,2.37,27.43,14.63,27.43,29.14v269c0,33.47-13.34,65.75-38,90.87-37.81,38.32-88.94,91.71-130.43,136C652.85,1369.19,642.66,1376,631.94,1381.5Z"/><path class="cls-89" d="M631.26,1367.63a153.53,153.53,0,0,1-137.69.06c-10.78-5.42-21-12-29-20.38-40.25-42.11-93.25-96.25-129.88-132.77-25-25.09-38.43-56.53-38.43-88.53V863.45c0-14,11.45-25.83,27.72-28.2,58.75-8.32,167.68-15.74,238.48-15.74,70.26,0,178.57,7.42,237.32,15.74,15.77,2.3,26.48,14.16,26.48,28.2V1126c0,32.62-12.8,64.06-37.19,88.53-37.52,37.41-88,89.52-129.21,132.77C651.89,1355.6,641.94,1362.22,631.26,1367.63Z"/><path class="cls-90" d="M630.58,1353.75a154,154,0,0,1-135.85.07c-10.73-5.3-21-11.76-28.89-19.92-39.94-41.07-92.36-93.89-128.7-129.51-24.77-24.43-37.89-55-37.89-86.19V862.08c0-13.5,11.08-25,27.06-27.25,58.27-8.12,166.25-15.69,236.46-15.69,69.69,0,176.69,7.45,234.94,15.69,15.49,2.19,25.54,13.68,25.54,27.25V1118.2c0,31.75-12.25,62.36-36.41,86.19-37.22,36.49-87.14,87.32-128,129.51C650.94,1342,641.21,1348.48,630.58,1353.75Z"/><path class="cls-91" d="M629.9,1339.88a154.49,154.49,0,0,1-134,.07c-10.7-5.17-20.89-11.48-28.78-19.46-39.62-40-93-91.52-129-126.25-24.52-23.77-38.85-53.55-38.85-83.86V860.71c0-13,12.21-24.1,27.9-26.31,57.8-7.91,165.57-15.64,235.2-15.64,69.1,0,176.65,7.61,234.43,15.64,15.2,2.11,26.47,13.21,26.47,26.31v249.67c0,30.9-13.21,60.68-37.12,83.86-36.93,35.57-87,85.13-127.52,126.25C650.73,1328.42,640.49,1334.73,629.9,1339.88Z"/><path class="cls-92" d="M629.22,1326a155.1,155.1,0,0,1-132.15.06c-10.66-5-20.82-11.19-28.67-19-39.3-39-91.58-89.17-127.34-123-24.28-23.11-37.81-52.06-37.81-81.52V859.34c0-12.56,11.34-23.23,26.74-25.36,57.32-7.71,163.88-15.6,232.93-15.6,68.53,0,174.62,7.78,231.93,15.6,14.91,2,25.4,12.73,25.4,25.36v243.23c0,30-12.67,59-36.34,81.52-36.63,34.65-86.09,82.93-126.3,123C649.78,1314.83,639.77,1321,629.22,1326Z"/><path class="cls-93" d="M628.54,1312.13a155.83,155.83,0,0,1-130.3.07c-10.62-4.9-20.75-10.91-28.56-18.52-39-38-90.69-86.81-126.16-119.75-24-22.44-37.27-50.56-37.27-79.18V858c0-12.09,11-22.36,26.08-24.42C389.18,826.05,494.78,818,563.25,818c67.94,0,172.71,7.93,229.54,15.54,14.63,2,24.46,12.26,24.46,24.42v236.78c0,29.18-12.13,57.3-35.55,79.18-36.34,33.74-85.2,80.74-125.08,119.75C648.83,1301.24,639,1307.25,628.54,1312.13Z"/><path class="cls-94" d="M627.86,1298.26a156.66,156.66,0,0,1-128.45.07c-10.58-4.77-20.67-10.63-28.45-18-38.67-37-89.79-84.46-125-116.5-23.77-21.78-36.72-49.07-36.72-76.84V856.6c0-11.63,10.61-21.5,25.42-23.47,56.38-7.29,161-15.5,228.9-15.5,67.37,0,172.29,8.21,228.67,15.5,14.33,1.91,25,11.78,25,23.47v230.34c0,28.31-13.08,55.6-36.26,76.84-36,32.82-85.06,78.55-124.62,116.5C648.62,1287.65,638.32,1293.51,627.86,1298.26Z"/><path class="cls-95" d="M627.18,1284.38a157.56,157.56,0,0,1-126.6.07c-10.55-4.63-20.59-10.35-28.34-17.58-38.28-36-88.4-82.09-123.31-113.24-23.52-21.12-35.68-47.58-35.68-74.51V855.23c0-11.16,9.74-20.63,24.26-22.53,55.9-7.08,159.33-15.45,226.63-15.45,66.79,0,169.76,8.37,225.67,15.45,14,1.84,23.44,11.31,23.44,22.53v223.89c0,27.46-12,53.92-35,74.51-35.75,31.9-83.9,76.35-123.14,113.24C647.42,1274.07,637.6,1279.76,627.18,1284.38Z"/><path class="cls-96" d="M626.5,1270.51a158.69,158.69,0,0,1-124.75.07c-10.51-4.5-20.52-10.07-28.22-17.11-38-35-87.52-79.74-122.14-110-23.28-20.46-35.14-46.09-35.14-72.17V853.86c0-10.69,9.37-19.77,23.6-21.58,55.43-6.88,157.9-15.41,224.62-15.41,66.21,0,167.85,8.53,223.28,15.41,13.76,1.76,22.5,10.83,22.5,21.58v217.45c0,26.59-11.5,52.22-34.19,72.17-35.45,31-83,74.15-121.93,110C646.46,1260.48,636.88,1266,626.5,1270.51Z"/><path class="cls-97" d="M625.82,1256.63a159.9,159.9,0,0,1-122.91.08c-10.46-4.37-20.43-9.78-28.1-16.65-37.65-33.92-88.13-77.38-122.46-106.74-23-19.79-36.1-44.59-36.1-69.82v-211c0-10.22,10.5-18.9,24.44-20.63,55-6.68,157.22-15.36,223.35-15.36,65.64,0,167.82,8.68,222.78,15.36,13.47,1.67,23.43,10.35,23.43,20.63v211c0,25.73-12.46,50.53-34.91,69.82-35.15,30.07-82.86,72-121.45,106.74C646.26,1246.89,636.16,1252.29,625.82,1256.63Z"/><path class="cls-98" d="M625.14,1242.76a161.28,161.28,0,0,1-121.06.07c-10.43-4.22-20.36-9.49-28-16.18-37.34-32.89-87.24-75-121.28-103.48-22.78-19.13-35.56-43.1-35.56-67.49V851.12c0-9.75,10.13-18,23.78-19.69,54.48-6.47,155.78-15.31,221.34-15.31,65,0,165.91,8.84,220.39,15.31,13.18,1.6,22.49,9.88,22.49,19.69v204.56c0,24.87-11.92,48.84-34.12,67.49-34.86,29.15-82,69.77-120.24,103.48C645.31,1233.3,635.44,1238.55,625.14,1242.76Z"/><path class="cls-99" d="M624.46,1228.88a162.87,162.87,0,0,1-119.21.08c-10.39-4.09-20.29-9.21-27.88-15.71-37-31.86-85.85-72.67-119.6-100.23-22.54-18.47-34.52-41.61-34.52-65.15V849.75c0-9.28,9.27-17.17,22.62-18.74,54-6.27,154.1-15.27,219.07-15.27,64.48,0,163.38,9,217.39,15.27,12.89,1.52,20.92,9.4,20.92,18.74v198.12c0,24-10.87,47.14-32.84,65.15-34.56,28.23-80.81,67.57-118.76,100.23C644.1,1219.71,634.72,1224.81,624.46,1228.88Z"/><path class="cls-78" d="M623.78,1215a163.86,163.86,0,0,1-117.36.08c-10.37-3.93-20.22-8.93-27.77-15.25-36.71-30.82-85.46-70.3-118.92-97-22.29-17.81-34.48-40.12-34.48-62.82V848.38c0-8.82,9.4-16.3,22.46-17.8,53.54-6.06,152.92-15.22,217.3-15.22,63.9,0,163.11,9.16,216.64,15.22,12.61,1.45,21.6,8.93,21.6,17.8v191.67c0,23.15-11.83,45.46-33.55,62.82-34.27,27.31-80.67,65.37-118.3,97C643.9,1206.12,634,1211.09,623.78,1215Z"/><path class="cls-100" d="M623.1,1201.13a166.15,166.15,0,0,1-115.51.08c-10.33-3.8-20.15-8.64-27.66-14.77-36.39-29.79-84.07-68-117.25-93.73-22-17.14-33.43-38.62-33.43-60.47V847c0-8.35,8.53-15.43,21.3-16.85,53.06-5.86,151.23-15.17,215-15.17,63.32,0,161.07,9.31,214.13,15.17,12.32,1.37,20.53,8.45,20.53,16.85v185.23c0,22.29-11.29,43.76-32.77,60.47-34,26.4-79.76,63.18-117.07,93.73C642.94,1192.53,633.28,1197.35,623.1,1201.13Z"/><path class="cls-67" d="M622.42,1187.26a168.91,168.91,0,0,1-113.66.08c-10.29-3.67-20.08-8.35-27.55-14.31-36.08-28.76-83.17-65.59-116.07-90.47-21.79-16.48-32.89-37.13-32.89-58.14V845.64c0-7.88,8.16-14.57,20.64-15.91,52.59-5.65,149.8-15.12,213-15.12,62.74,0,159.17,9.47,211.76,15.12,12,1.29,19.58,8,19.58,15.91v178.78c0,21.43-10.75,42.08-32,58.14-33.68,25.48-78.87,61-115.86,90.47C642,1179,632.56,1183.61,622.42,1187.26Z"/><path class="cls-28" d="M833.25,906.42a54.41,54.41,0,0,0-14.79-37.93,53.81,53.81,0,0,0-37.06-16.75c-2.56-.09-5.11-.15-7.89-.15-2,0-4.06,0-6.21.09l.52,18.54c2-.06,3.93-.08,5.79-.08,2.55,0,5,.05,7.31.13a37.78,37.78,0,0,1,25.41,11.05c6.26,6.55,10.92,15.36,10.92,25.1V1198c0,56.22-13.69,111.7-38.42,162.19l-.44,0-52.83,108.42c16.57-20.47,33.74-41.59,50.61-62.12l18.53-38.2-.47,0a386.78,386.78,0,0,0,39-170.35Z"/><polygon class="cls-28" points="767.85 870.22 767.85 870.22 767.85 870.22 767.85 870.22"/><path class="cls-28" d="M283.25,906.42a54.42,54.42,0,0,1,14.8-37.93,53.81,53.81,0,0,1,37.06-16.75c2.56-.09,5.11-.15,7.89-.15,2,0,4.06,0,6.21.09l-.52,18.54c-2-.06-3.93-.08-5.79-.08-2.55,0-5,.05-7.31.13a37.78,37.78,0,0,0-25.41,11.05c-6.26,6.55-10.93,15.36-10.93,25.1V1198c0,56.22,13.7,111.7,38.43,162.19l.44,0L391,1468.68c-16.57-20.47-33.74-41.59-50.61-62.12l-18.53-38.2.46,0a386.92,386.92,0,0,1-39-170.35Z"/><polygon class="cls-28" points="348.67 870.22 348.66 870.22 348.66 870.22 348.67 870.22"/><path class="cls-28" d="M640.51,1004.05a31.5,31.5,0,0,0-22.25-9h-120a31.5,31.5,0,0,0-22.25,9c-5.84,5.84-9.75,13.23-9.75,21.56v140c0,8.34,3.91,14.6,9.75,20.44s13.91,7.93,22.25,7.93h130c5.41,0,11.1-1.16,15.05-5.12s6.93-7.83,6.93-13.24v-150C650.25,1017.28,646.35,1009.89,640.51,1004.05Zm-23.26,151.58c0,2.71-.48,4.74-2.46,6.72a8.24,8.24,0,0,1-6.53,2.65h-100a8.24,8.24,0,0,1-6.53-2.65c-2-2-2.47-4-2.47-6.72v-120c0-2.7.49-3.86,2.47-5.83s3.82-1.78,6.53-1.78h100c2.71,0,4.55-.2,6.53,1.78a6.73,6.73,0,0,1,2.46,5.83Z"/><path class="cls-28" d="M787.25,862.58c0-22.68-63.48-41.58-143.53-41.58H472.39c-80.05,0-147.14,18.9-147.14,41.58v15.27c0,22.68,67.09,41.15,147.14,41.15H643.72c80,0,143.53-18.47,143.53-41.15Z"/><path class="cls-101" d="M728.25,818.68c0-17-46-29.68-106.15-29.68H493.29c-60.17,0-112,12.63-112,29.68v11.48c0,17.05,51.87,30.84,112,30.84H622.1c60.18,0,106.15-13.79,106.15-30.84Z"/><path class="cls-102" d="M622.1,847H493.29c-59.23,0-110.19-12.62-111.78-29.28,0,.27-.26.69-.26,1v11.48c0,17.05,51.87,30.84,112,30.84H622.1c60.18,0,106.15-13.79,106.15-30.84V818.68c0-.27,0-.69,0-1C726.81,834.38,681.33,847,622.1,847Z"/><path class="cls-28" d="M556.47,518.75a23.18,23.18,0,0,1,23.21,23.15l.24,251.44a23.18,23.18,0,1,1-46.36,0L533.32,542A23.17,23.17,0,0,1,556.47,518.75Z"/><path class="cls-55" d="M549.69,804.72a13.38,13.38,0,0,0,20.42-11.38l-.25-251.43a13.37,13.37,0,1,0-26.73,0l.24,251.43A13.34,13.34,0,0,0,549.69,804.72Z"/><path class="cls-56" d="M550.17,797.41a12.37,12.37,0,0,0,18.9-10.52l-.31-237.58a12.38,12.38,0,1,0-24.75,0l.31,237.58A12.33,12.33,0,0,0,550.17,797.41Z"/><path class="cls-57" d="M550.65,790.11A11.38,11.38,0,0,0,568,780.44l-.39-223.73a11.39,11.39,0,0,0-22.77,0l.39,223.73A11.37,11.37,0,0,0,550.65,790.11Z"/><path class="cls-58" d="M551.14,782.81A10.38,10.38,0,0,0,567,774l-.46-209.87a10.39,10.39,0,1,0-20.78,0L546.22,774A10.36,10.36,0,0,0,551.14,782.81Z"/><path class="cls-59" d="M551.62,775.51a9.42,9.42,0,0,0,11.61-1.34,9.29,9.29,0,0,0,2.73-6.64l-.53-196a9.4,9.4,0,1,0-18.8,0l.54,196A9.36,9.36,0,0,0,551.62,775.51Z"/><path class="cls-60" d="M552.1,768.2a8.39,8.39,0,0,0,12.83-7.12l-.61-182.18A8.42,8.42,0,0,0,550,573a8.28,8.28,0,0,0-2.45,5.94l.61,182.17A8.35,8.35,0,0,0,552.1,768.2Z"/><path class="cls-61" d="M552.58,760.9a7.42,7.42,0,0,0,9.16-1,7.3,7.3,0,0,0,2.15-5.23l-.68-168.32a7.43,7.43,0,0,0-12.67-5.24,7.28,7.28,0,0,0-2.15,5.23l.68,168.32A7.36,7.36,0,0,0,552.58,760.9Z"/><path class="cls-62" d="M553.06,753.6a6.44,6.44,0,0,0,3.39,1,6.35,6.35,0,0,0,6.4-6.39L562.1,593.7a6.43,6.43,0,0,0-6.44-6.41,6.38,6.38,0,0,0-6.4,6.39L550,748.15A6.43,6.43,0,0,0,553.06,753.6Z"/><path class="cls-63" d="M553.55,746.3a5.39,5.39,0,0,0,8.27-4.58L561,601.1a5.45,5.45,0,0,0-9.28-3.85,5.32,5.32,0,0,0-1.57,3.82L551,741.69A5.42,5.42,0,0,0,553.55,746.3Z"/><path class="cls-64" d="M554,739a4.37,4.37,0,0,0,2.34.67,4.37,4.37,0,0,0,4.41-4.39l-.89-126.77a4.45,4.45,0,0,0-4.46-4.43,4.37,4.37,0,0,0-4.41,4.39l.89,126.77A4.4,4.4,0,0,0,554,739Z"/><path class="cls-65" d="M554.51,731.69a3.4,3.4,0,0,0,1.81.52,3.36,3.36,0,0,0,3.42-3.4l-1-112.92a3.47,3.47,0,0,0-3.47-3.43,3.36,3.36,0,0,0-3.42,3.39l1,112.92A3.44,3.44,0,0,0,554.51,731.69Z"/><path class="cls-66" d="M555,724.39a2.54,2.54,0,0,0,1.29.37,2.39,2.39,0,0,0,2.43-2.4l-1-99.07a2.48,2.48,0,0,0-2.47-2.44,2.38,2.38,0,0,0-1.74.69,2.32,2.32,0,0,0-.69,1.71l1,99.06A2.45,2.45,0,0,0,555,724.39Z"/><path class="cls-67" d="M1016.44,302s-14.17,90.61,0,185.9c0,0,52.09-8.92,52.09-93S1016.44,302,1016.44,302Z"/><path class="cls-68" d="M1018.78,480.39a56.31,56.31,0,0,0,22.47-13.81c15.93-15.69,24-39.81,24-71.68,0-52.13-22.36-73.14-36.9-81.3-5.28-3-10.66,4.06-11.71,15.24C1013.65,360.81,1010.42,419.55,1018.78,480.39Z"/><path class="cls-69" d="M1027.85,313.31c-5-2.78-10.11,3.88-11.13,14.46-.09.92-.17,1.87-.26,2.84-2.74,31-5.33,85.11,2.27,141.21,4.07.07,13.06-2.54,21.79-11.24,15.33-15.24,23.07-38.54,23-69.24C1063.44,341.18,1041.91,321.08,1027.85,313.31Z"/><path class="cls-70" d="M1027.33,313c-4.75-2.6-9.56,3.69-10.54,13.68-.09.88-.17,1.78-.25,2.71-2.56,29.48-4.95,80.64,2.14,133.84,3.79,1.47,12.63-.12,21.11-8.66,14.73-14.81,22.13-37.29,22-66.81C1061.62,339.59,1040.9,320.41,1027.33,313Z"/><path class="cls-71" d="M1026.81,312.73c-4.49-2.42-9,3.5-10,12.9-.08.84-.16,1.69-.24,2.58-2.37,28-4.56,76.17,2,126.47,3.52,2.88,12.22,2.3,20.44-6.08,14.12-14.37,21.19-36,21-64.39C1059.8,338,1039.87,319.76,1026.81,312.73Z"/><path class="cls-72" d="M1026.28,312.44c-4.22-2.24-8.46,3.32-9.37,12.12-.08.79-.16,1.61-.22,2.44-2.19,26.43-4.18,71.72,1.88,119.11,3.24,4.28,11.8,4.73,19.76-3.5,13.52-13.93,20.25-34.78,20-62C1058,336.41,1038.86,319.1,1026.28,312.44Z"/><path class="cls-73" d="M1025.76,312.15c-4-2.06-7.91,3.13-8.78,11.34-.08.75-.16,1.52-.22,2.31-2,24.9-3.79,67.25,1.76,111.74,3,5.68,11.38,7.15,19.08-.92,12.91-13.5,19.31-33.52,19-59.53C1056.15,334.81,1037.85,318.43,1025.76,312.15Z"/><path class="cls-74" d="M1025.24,311.86c-3.69-1.88-7.37,2.94-8.2,10.56-.08.7-.15,1.43-.21,2.18-1.81,23.37-3.4,62.78,1.64,104.38,2.68,7.08,11,9.56,18.4,1.65,12.31-13.06,18.37-32.27,18-57.1C1054.33,333.22,1036.84,317.75,1025.24,311.86Z"/><path class="cls-75" d="M1024.72,311.57c-3.43-1.7-6.82,2.75-7.62,9.77-.07.67-.14,1.36-.19,2.06-1.63,21.84-3,58.31,1.51,97,2.4,8.48,10.54,12,17.72,4.23,11.7-12.62,17.43-31,17-54.67C1052.51,331.63,1035.83,317.08,1024.72,311.57Z"/><path class="cls-76" d="M1024.2,311.28c-3.16-1.53-6.28,2.57-7,9-.08.63-.14,1.27-.19,1.93-1.45,20.31-2.63,53.84,1.39,89.64,2.12,9.88,10.12,14.41,17,6.81,11.1-12.18,16.49-29.76,16-52.24C1050.68,330,1034.83,316.4,1024.2,311.28Z"/><path class="cls-77" d="M1023.67,311c-2.89-1.35-5.72,2.38-6.44,8.21-.07.58-.13,1.18-.17,1.8a487.14,487.14,0,0,0,1.26,82.27c1.84,11.28,9.69,16.83,16.36,9.39,10.5-11.75,15.55-28.5,15-49.82C1048.86,328.45,1033.82,315.72,1023.67,311Z"/><path class="cls-78" d="M1023.15,310.69c-2.62-1.17-5.17,2.2-5.86,7.44-.07.54-.12,1.1-.16,1.67a475.23,475.23,0,0,0,1.13,74.9c1.57,12.69,9.28,19.25,15.69,12,9.89-11.31,14.61-27.25,14-47.39C1047,326.86,1032.82,315,1023.15,310.69Z"/><path class="cls-67" d="M1018.21,386.13c1.3,14.09,8.86,21.68,14.88,14.7,0-.05.09-.1.13-.16,9.29-10.86,13.67-26,13-44.95-1-30.46-14.42-41.4-23.62-45.32-2.6-1.11-5.11,2.7-5.42,8.2A466.48,466.48,0,0,0,1018.21,386.13Z"/><path class="cls-28" d="M1011.41,518a18.46,18.46,0,0,1-18.48-18.45l-.2-200.23a18.46,18.46,0,0,1,36.92,0l.2,200.24A18.47,18.47,0,0,1,1011.41,518Z"/><path class="cls-55" d="M1016.81,290.26a10.64,10.64,0,0,0-16.26,9.05l.19,200.24a10.65,10.65,0,1,0,21.29,0l-.19-200.23A10.59,10.59,0,0,0,1016.81,290.26Z"/><path class="cls-56" d="M1017.34,296.07a9.85,9.85,0,0,0-15.05,8.38l.25,189.2a9.86,9.86,0,1,0,19.71,0l-.25-189.2A9.84,9.84,0,0,0,1017.34,296.07Z"/><path class="cls-57" d="M1017.87,301.89a8.89,8.89,0,0,0-4.79-1.36,9,9,0,0,0-9.05,9.06l.3,178.17a9.07,9.07,0,1,0,18.13,0l-.31-178.17A9,9,0,0,0,1017.87,301.89Z"/><path class="cls-58" d="M1018.4,307.7a8.31,8.31,0,0,0-4.38-1.24,8.26,8.26,0,0,0-8.26,8.27l.37,167.14a8.28,8.28,0,1,0,16.55,0l-.37-167.14A8.26,8.26,0,0,0,1018.4,307.7Z"/><path class="cls-59" d="M1018.93,313.52a7.47,7.47,0,0,0-11.43,6.35l.43,156.11a7.43,7.43,0,0,0,3.54,6.35,7.47,7.47,0,0,0,11.42-6.35l-.42-156.11A7.48,7.48,0,0,0,1018.93,313.52Z"/><path class="cls-60" d="M1019.45,319.33a6.72,6.72,0,0,0-8.26.95,6.62,6.62,0,0,0-2,4.73l.48,145.08a6.7,6.7,0,1,0,13.39,0L1022.63,325A6.69,6.69,0,0,0,1019.45,319.33Z"/><path class="cls-61" d="M1020,325.15a5.91,5.91,0,0,0-7.29.83,5.82,5.82,0,0,0-1.71,4.17l.54,134.05a5.92,5.92,0,0,0,10.09,4.17,5.8,5.8,0,0,0,1.71-4.16l-.54-134A5.88,5.88,0,0,0,1020,325.15Z"/><path class="cls-62" d="M1020.51,331a5.08,5.08,0,0,0-7.79,4.32l.59,123a5.13,5.13,0,0,0,8.75,3.62,5,5,0,0,0,1.48-3.6l-.6-123A5.07,5.07,0,0,0,1020.51,331Z"/><path class="cls-63" d="M1021,336.78a4.35,4.35,0,0,0-2.28-.65,4.3,4.3,0,0,0-4.31,4.3l.66,112a4.34,4.34,0,0,0,7.39,3.07,4.21,4.21,0,0,0,1.25-3.05l-.65-112A4.31,4.31,0,0,0,1021,336.78Z"/><path class="cls-64" d="M1021.57,342.6a3.59,3.59,0,0,0-1.86-.54,3.5,3.5,0,0,0-3.52,3.51l.72,100.95a3.52,3.52,0,0,0,1.68,3,3.58,3.58,0,0,0,1.86.53,3.48,3.48,0,0,0,3.52-3.5l-.71-101A3.53,3.53,0,0,0,1021.57,342.6Z"/><path class="cls-65" d="M1022.1,348.41a2.72,2.72,0,0,0-1.45-.41,2.63,2.63,0,0,0-1.93.79,2.59,2.59,0,0,0-.79,1.91l.77,89.93A2.73,2.73,0,0,0,1020,443a2.81,2.81,0,0,0,1.44.42,2.7,2.7,0,0,0,1.94-.79,2.66,2.66,0,0,0,.78-1.92l-.77-89.92A2.73,2.73,0,0,0,1022.1,348.41Z"/><path class="cls-66" d="M1022.63,354.23a2.06,2.06,0,0,0-1-.3,1.91,1.91,0,0,0-1.38.56,1.83,1.83,0,0,0-.55,1.35l.83,78.9a1.93,1.93,0,0,0,.94,1.65,2.06,2.06,0,0,0,1,.3,1.89,1.89,0,0,0,1.37-.56,1.85,1.85,0,0,0,.56-1.36l-.83-78.89A2,2,0,0,0,1022.63,354.23Z"/><path class="cls-67" d="M100.07,302s14.17,90.61,0,185.9c0,0-52.1-8.92-52.1-93S100.07,302,100.07,302Z"/><path class="cls-68" d="M97.73,480.39a56.31,56.31,0,0,1-22.47-13.81c-15.93-15.69-24-39.81-24-71.68,0-52.13,22.36-73.14,36.9-81.3,5.28-3,10.66,4.06,11.71,15.24C102.86,360.81,106.09,419.55,97.73,480.39Z"/><path class="cls-69" d="M88.66,313.31c5-2.78,10.11,3.88,11.13,14.46.08.92.17,1.87.26,2.84,2.74,31,5.32,85.11-2.27,141.21-4.07.07-13.06-2.54-21.78-11.22l-.19-.2C60.6,445.15,52.91,421.92,53,391.34,53.07,341.18,74.6,321.08,88.66,313.31Z"/><path class="cls-70" d="M89.18,313c4.75-2.6,9.56,3.69,10.54,13.68.09.88.17,1.78.25,2.71,2.56,29.48,5,80.64-2.14,133.84-3.79,1.47-12.64-.12-21.08-8.63l-.19-.19c-14.62-14.81-22-37.24-21.86-66.65C54.89,339.59,75.61,320.41,89.18,313Z"/><path class="cls-71" d="M89.7,312.73c4.49-2.42,9,3.5,10,12.9.08.84.16,1.69.24,2.58,2.37,28,4.56,76.17-2,126.47-3.51,2.88-12.21,2.3-20.39-6l-.18-.18c-14-14.38-21.05-36-20.88-64.25C56.71,338,76.64,319.76,89.7,312.73Z"/><path class="cls-72" d="M90.23,312.44c4.22-2.24,8.46,3.32,9.37,12.12.08.79.15,1.61.22,2.44,2.19,26.43,4.18,71.72-1.88,119.11-3.24,4.28-11.8,4.73-19.71-3.44l-.18-.18c-13.43-13.94-20.12-34.74-19.89-61.84C58.53,336.41,77.65,319.1,90.23,312.44Z"/><path class="cls-73" d="M90.75,312.15c4-2.06,7.91,3.13,8.78,11.34.08.75.16,1.52.22,2.31,2,24.9,3.79,67.25-1.76,111.74-3,5.68-11.38,7.15-19-.85l-.17-.18C66,423,59.6,403,59.89,377.09,60.36,334.81,78.66,318.43,90.75,312.15Z"/><path class="cls-74" d="M91.27,311.86c3.69-1.88,7.37,2.94,8.2,10.56.08.7.15,1.43.2,2.18C101.49,348,103.08,387.38,98,429c-2.68,7.08-11,9.56-18.33,1.73l-.16-.17c-12.25-13.06-18.28-32.24-17.93-57C62.18,333.22,79.67,317.75,91.27,311.86Z"/><path class="cls-75" d="M91.79,311.57c3.43-1.7,6.82,2.75,7.62,9.77.07.67.14,1.36.19,2.06,1.63,21.84,3,58.31-1.51,97-2.4,8.48-10.54,12-17.64,4.33l-.15-.17C68.64,412,62.94,393.58,63.35,370,64,331.63,80.68,317.08,91.79,311.57Z"/><path class="cls-76" d="M92.31,311.28c3.16-1.53,6.27,2.57,7,9,.08.63.14,1.27.19,1.93,1.45,20.31,2.63,53.84-1.39,89.64C96,421.72,88,426.25,81.2,418.76l-.15-.17c-11.07-12.18-16.44-29.74-16-52.18C65.82,330,81.68,316.4,92.31,311.28Z"/><path class="cls-77" d="M92.83,311c2.9-1.35,5.73,2.38,6.45,8.21.07.58.13,1.18.17,1.8a487.14,487.14,0,0,1-1.26,82.27c-1.84,11.28-9.69,16.83-16.25,9.51l-.15-.16c-10.47-11.74-15.51-28.49-15-49.78C67.65,328.45,82.69,315.72,92.83,311Z"/><path class="cls-78" d="M93.36,310.69c2.62-1.17,5.17,2.2,5.86,7.44.07.54.12,1.1.16,1.67a475.23,475.23,0,0,1-1.13,74.9C96.67,407.39,89,414,82.68,406.8l-.14-.15c-9.88-11.31-14.59-27.24-14-47.37C69.47,326.86,83.69,315,93.36,310.69Z"/><path class="cls-67" d="M98.3,386.13c-1.3,14.09-8.86,21.68-14.88,14.7,0-.05-.09-.1-.13-.16-9.29-10.86-13.67-26-13-44.95,1-30.46,14.42-41.4,23.62-45.32,2.6-1.11,5.11,2.7,5.42,8.2A466.48,466.48,0,0,1,98.3,386.13Z"/><path class="cls-28" d="M86.66,499.52l.19-200.24a18.47,18.47,0,0,1,36.93,0l-.2,200.23a18.46,18.46,0,1,1-36.92,0Z"/><path class="cls-55" d="M99.7,290.26A10.64,10.64,0,0,1,116,299.31l-.19,200.24a10.65,10.65,0,1,1-21.29,0l.19-200.23A10.57,10.57,0,0,1,99.7,290.26Z"/><path class="cls-56" d="M99.17,296.07a9.85,9.85,0,0,1,15,8.38L114,493.65a9.86,9.86,0,1,1-19.71,0l.25-189.2A9.84,9.84,0,0,1,99.17,296.07Z"/><path class="cls-57" d="M98.64,301.89a8.89,8.89,0,0,1,4.79-1.36,9,9,0,0,1,9,9.06l-.31,178.17a9.06,9.06,0,1,1-18.12,0l.31-178.17A9,9,0,0,1,98.64,301.89Z"/><path class="cls-58" d="M98.11,307.7a8.3,8.3,0,0,1,4.37-1.24,8.26,8.26,0,0,1,8.27,8.27l-.37,167.14a8.28,8.28,0,1,1-16.55,0l.37-167.14A8.24,8.24,0,0,1,98.11,307.7Z"/><path class="cls-59" d="M97.58,313.52A7.47,7.47,0,0,1,109,319.87L108.58,476a7.43,7.43,0,0,1-3.54,6.35A7.47,7.47,0,0,1,93.62,476L94,319.87A7.48,7.48,0,0,1,97.58,313.52Z"/><path class="cls-60" d="M97.06,319.33A6.68,6.68,0,0,1,107.27,325l-.48,145.08a6.69,6.69,0,0,1-3.18,5.68,6.68,6.68,0,0,1-10.21-5.68L93.88,325A6.69,6.69,0,0,1,97.06,319.33Z"/><path class="cls-61" d="M96.53,325.15a5.91,5.91,0,0,1,7.29.83,5.82,5.82,0,0,1,1.71,4.17L105,464.2a5.92,5.92,0,0,1-10.09,4.17,5.8,5.8,0,0,1-1.71-4.16l.54-134A5.85,5.85,0,0,1,96.53,325.15Z"/><path class="cls-62" d="M96,331a5.08,5.08,0,0,1,7.79,4.32l-.59,123a5.13,5.13,0,0,1-5.13,5.11,5.07,5.07,0,0,1-5.1-5.09l.6-123A5.07,5.07,0,0,1,96,331Z"/><path class="cls-63" d="M95.47,336.78a4.35,4.35,0,0,1,2.28-.65,4.3,4.3,0,0,1,4.31,4.3l-.66,112A4.34,4.34,0,0,1,94,455.48a4.21,4.21,0,0,1-1.25-3.05l.65-112A4.31,4.31,0,0,1,95.47,336.78Z"/><path class="cls-64" d="M94.94,342.6a3.59,3.59,0,0,1,1.86-.54,3.5,3.5,0,0,1,3.52,3.51L99.6,446.52a3.52,3.52,0,0,1-1.68,3,3.58,3.58,0,0,1-1.86.53,3.51,3.51,0,0,1-2.5-1,3.45,3.45,0,0,1-1-2.48l.71-101A3.5,3.5,0,0,1,94.94,342.6Z"/><path class="cls-65" d="M94.41,348.41a2.71,2.71,0,0,1,1.44-.41,2.7,2.7,0,0,1,2.73,2.7l-.77,89.93A2.73,2.73,0,0,1,96.49,443a2.81,2.81,0,0,1-1.44.42,2.7,2.7,0,0,1-1.94-.79,2.66,2.66,0,0,1-.78-1.92l.77-89.92A2.73,2.73,0,0,1,94.41,348.41Z"/><path class="cls-66" d="M93.88,354.23a2.06,2.06,0,0,1,1-.3,1.91,1.91,0,0,1,1.38.56,1.83,1.83,0,0,1,.55,1.35L96,434.74a1.93,1.93,0,0,1-.94,1.65,2.06,2.06,0,0,1-1,.3,1.89,1.89,0,0,1-1.37-.56,1.85,1.85,0,0,1-.56-1.36l.83-78.89A2,2,0,0,1,93.88,354.23Z"/><rect class="cls-67" x="116.25" width="886" height="759" rx="271.85"/><rect class="cls-66" x="130.25" y="17" width="857" height="726" rx="245.68"/><path class="cls-103" d="M986.25,487.15C986.25,622.84,875.87,733,740.19,733H376.92c-135.69,0-246.67-110.16-246.67-245.85V264.72C130.25,127.62,242.38,17,379.47,17H737.63c137.1,0,248.62,110.62,248.62,247.72Z"/><path class="cls-104" d="M984.25,477.34C984.25,613,875,723,739.29,723H378.41c-135.69,0-246.16-110-246.16-245.66V267.27C132.25,128.76,245,17,383.52,17H734.18A249.73,249.73,0,0,1,984.25,267.27Z"/><path class="cls-105" d="M984.25,467.53C984.25,603.21,874.09,714,738.4,714H379.89c-135.68,0-247.64-110.79-247.64-246.47V269.83C132.25,129.91,247.64,17,387.56,17H730.73c139.92,0,253.52,112.91,253.52,252.83Z"/><path class="cls-106" d="M984.25,457.71C984.25,593.4,873.2,704,737.51,704H381.38c-135.69,0-245.13-110.6-245.13-246.29V272.38A255,255,0,0,1,391.6,17H727.29c141.33,0,257,114.05,257,255.38Z"/><path class="cls-107" d="M984.25,447.9c0,135.69-112,246.1-247.63,246.1H382.87c-135.69,0-246.62-110.41-246.62-246.1v-173C136.25,132.2,252.9,17,395.64,17h328.2c142.74,0,260.41,115.2,260.41,257.94Z"/><path class="cls-108" d="M980.25,438.09C980.25,573.77,871.41,684,735.72,684H384.35c-135.68,0-245.1-110.23-245.1-245.91V277.49A260.08,260.08,0,0,1,399.69,17h320.7c144.16,0,259.86,116.34,259.86,260.49Z"/><path class="cls-109" d="M980.25,428.27C980.25,564,870.52,674,734.83,674h-349c-135.69,0-246.59-110-246.59-245.73V280.05c0-145.57,118.91-263,264.48-263H716.94c145.57,0,263.31,117.48,263.31,263.05Z"/><path class="cls-110" d="M980.25,418.46C980.25,554.15,869.63,664,733.94,664H387.33c-135.69,0-245.08-109.85-245.08-245.54V282.61A265.17,265.17,0,0,1,407.77,17H713.49c147,0,266.76,118.63,266.76,265.61Z"/><path class="cls-111" d="M980.25,408.65C980.25,544.33,868.73,654,733.05,654H388.81c-135.68,0-246.56-109.67-246.56-245.35V285.16C142.25,136.77,263.43,17,411.82,17H710.05c148.39,0,270.2,119.77,270.2,268.16Z"/><path class="cls-112" d="M977.25,398.83A244.74,244.74,0,0,1,732.16,644H390.3c-135.69,0-244-109.48-244-245.17V287.72C146.25,137.92,266.06,17,415.86,17H706.6A270.3,270.3,0,0,1,977.25,287.72Z"/><path class="cls-67" d="M703.15,17H419.9C268.69,17,146.25,139.06,146.25,290.27V389c0,135.69,109.85,246,245.54,246H731.26c135.69,0,246-110.29,246-246V290.27C977.25,139.06,854.36,17,703.15,17Z"/><path class="cls-28" d="M198.44,373.29c-34.33,0-56.8,6.07-71.44,12.81-4.43,2-6.75,4.13-10.75,6.11v31.91A13.33,13.33,0,0,0,126.7,419h-.18c.24,0,4-4.54,14.92-9s28.8-8.92,57-8.92a13.91,13.91,0,1,0,0-27.81Z"/><path class="cls-28" d="M1003.25,389.54c-2-1.14-4.31-2.3-6.79-3.44-14.64-6.74-37.49-12.82-71.82-12.81a13.91,13.91,0,1,0,0,27.81c28.23,0,46.13,4.5,57,8.92s14.94,9,14.94,9h.15a17,17,0,0,0,6.54,4.46Z"/><rect class="cls-28" x="198.25" y="128" width="720" height="537" rx="226.15"/><path class="cls-113" d="M424.59,638c-110.27,0-200.34-89.74-200.34-200V353.84C224.25,243.57,314.32,154,424.59,154H691.92c110.27,0,200.33,89.57,200.33,199.84V438c0,110.27-90.06,200-200.33,200Z"/><g class="cls-114"><path class="cls-115" d="M892.25,357v-3.16c0-.15-.36.16-.36.16H862.25V318h26.26c-.2,0-.36-4-.58-4H862.25V275h13.37c-.47,0-1-3-1.48-3H862.25V249.53c-1-1.73-2-3.41-3-5.1V272h-46V236H853.1c-.26,0-.49-.88-.74-1.21s-.36-.75-.54-1a6.17,6.17,0,0,1-1.2-1.8H813.25V197H815c-1,0-2.08-2-3.14-2.77-.22-.17-.38-.49-.61-.66s-1-.65-1-.9V193h-43V168.78c0-.45-3-.87-3-1.29V193h-43V157h6.46a31.1,31.1,0,0,1-4.73-.78c-.29-.05-.57-.07-.85-.11-3.06-.47-6.15-.84-9.26-1.16l-.68-.07c-3-.3-6-.51-9-.68-.72,0-1.45,0-2.17,0-3-.14-6.09-.16-9.15-.16H424.59c-3.07,0-6.12,0-9.16.16-.72,0-1.44,0-2.15.08-3,.16-6,.36-9,.66l-.67.07c-3.11.33-6.2.71-9.26,1.18-.29,0-.56,0-.85.07a31.1,31.1,0,0,1-4.73.78h6.45v36h-46V168.78c0,.24-1.36.45-1.94.7-.19.08-.66.16-.84.23s-1.22.29-1.22.43V193h-39v-.33c0,.25-.64.49-1,.75s-.42.64-.64.81c-1.07.8-2.06,2.77-3.11,2.77h1.73v35H265.89a5.76,5.76,0,0,1-1.24,1.75c-.15.21-.31.69-.47.91s-.5,1.34-.76,1.34h39.83v36h-43V239.61c0,.58-.66,1.15-1.06,1.74s-.62,1-1,1.48,0,1.07-1,1.6V272H242.37c-.49,0-1,3-1.48,3h16.36v39H228.58c-.22,0-.38,4-.58,4h29.25v36H224.62s-.37-.31-.37-.16V357h33v36h-33v3h33v39h-33v3a7.41,7.41,0,0,0,.37,1h32.63v36H228c.2,0,.36,3,.58,3h28.67v36H239.53c.24,0,.45,1,.7,1.62l.23.49c.14.32.29.89.43.89h16.36v30.4c1,.53.71,1.08,1.07,1.61s.51,1,.85,1.48,1.08,1.15,1.08,1.74V517h43v40H263.42c.25,0,.49.3.74.65s.34.51.51.74c.4.52.82,1.61,1.22,1.61h37.36v32h-5.87s0,.12,0,.13.1.4.15.44c1.3,1.07,2.64,2.43,4,3.43h1.72v.7c0,.4,1,.82,1.48,1.21.23.17.35.34.58.51s.94.49.94.75V596h39v25.7c0,.13.82.28,1.13.42s.64.16.83.23c.59.25,2,.46,2,.71V596h46v39H388.8a18.37,18.37,0,0,1,2.92.37c1.29.22,2.59.36,3.89.55,1.93.28,3.87.48,5.81.7,1.25.15,2.48.29,3.74.41,2.15.21,4.32.35,6.49.49,1.06.07,2.1.17,3.16.22,3.24.16,6.5.26,9.78.26H691.92c3.28,0,6.53-.11,9.77-.26,1.06,0,2.11-.16,3.17-.23,2.17-.13,4.34-.29,6.49-.49,1.25-.13,2.49-.29,3.73-.43,1.95-.23,3.89-.46,5.82-.74,1.3-.19,2.6-.26,3.89-.48a18.37,18.37,0,0,1,2.92-.37h-6.46V596h43v28.35c0-.43,3-.85,3-1.3V596h43v3.17c0-.26.64-.49,1-.75s.35-.34.58-.51c.52-.4.43-.82,1.43-1.21V596H815c1.32-1,2.65-2.31,3.94-3.37.06,0,.12-.32.17-.37s0-.26,0-.26h-5.88V560h37.37c.4,0,.83-1.29,1.22-1.82.17-.22.34-.17.5-.4s.5-.78.75-.78H813.25V517h46v30.41c1-1.69,2-3.38,3-5.1V517h13.37c.14,0,.28-.63.42-.94s.17-.26.25-.46c.25-.58.46-1.6.69-1.6H862.25V478h25.68c.22,0,.38-3,.58-3H862.25V439h29.64a7.54,7.54,0,0,0,.36-1v-3h-30V396h30v-3h-30V357Zm-589,157h-43V478h43Zm0-39h-43V439h43Zm0-40h-43V396h43Zm0-42h-43V357h43Zm0-39h-43V318h43Zm0-40h-43V275h43Zm42,278h-39V560h39Zm0-35h-39V517h39Zm0-43h-39V478h39Zm0-39h-39V439h39Zm0-40h-39V396h39Zm0-42h-39V357h39Zm0-39h-39V318h39Zm0-40h-39V275h39Zm0-42h-39V236h39Zm0-40h-39V197h39Zm328-75h45v36h-45Zm0,40h45v35h-45Zm0,39h45v36h-45Zm0,39h45v39h-45Zm0,43h45v36h-45Zm0,39h45v36h-45Zm0,39h45v39h-45Zm0,43h45v36h-45Zm0,39h45v36h-45Zm0,39h45v40h-45Zm0,43h45v32h-45Zm-43-403h39v36h-39Zm0,40h39v35h-39Zm0,39h39v36h-39Zm0,39h39v39h-39Zm0,43h39v36h-39Zm0,39h39v36h-39Zm0,39h39v39h-39Zm0,43h39v36h-39Zm0,39h39v36h-39Zm0,39h39v40h-39Zm0,43h39v32h-39Zm-46-403h43v36h-43Zm0,40h43v35h-43Zm0,39h43v36h-43Zm0,39h43v39h-43Zm0,43h43v36h-43Zm0,39h43v36h-43Zm0,39h43v39h-43Zm0,43h43v36h-43Zm0,39h43v36h-43Zm0,39h43v40h-43Zm0,43h43v32h-43Zm-49-403h46v36h-46Zm0,40h46v35h-46Zm0,39h46v36h-46Zm0,39h46v39h-46Zm0,43h46v36h-46Zm0,39h46v36h-46Zm0,39h46v39h-46Zm0,43h46v36h-46Zm0,39h46v36h-46Zm0,39h46v40h-46Zm0,43h46v32h-46Zm-46-403h43v36h-43Zm0,40h43v35h-43Zm0,39h43v36h-43Zm0,39h43v39h-43Zm0,43h43v36h-43Zm0,39h43v36h-43Zm0,39h43v39h-43Zm0,43h43v36h-43Zm0,39h43v36h-43Zm0,39h43v40h-43Zm0,43h43v32h-43Zm-46-403h43v36h-43Zm0,40h43v35h-43Zm0,39h43v36h-43Zm0,39h43v39h-43Zm0,43h43v36h-43Zm0,39h43v36h-43Zm0,39h43v39h-43Zm0,43h43v36h-43Zm0,39h43v36h-43Zm0,39h43v40h-43Zm0,43h43v32h-43Zm-45-403h42v36h-42Zm0,40h42v35h-42Zm0,39h42v36h-42Zm0,39h42v39h-42Zm0,43h42v36h-42Zm0,39h42v36h-42Zm0,39h42v39h-42Zm0,43h42v36h-42Zm0,39h42v36h-42Zm0,39h42v40h-42Zm0,43h42v32h-42Zm-49-363h46v35h-46Zm0,39h46v36h-46Zm0,39h46v39h-46Zm0,43h46v36h-46Zm0,39h46v36h-46Zm0,39h46v39h-46Zm0,43h46v36h-46Zm0,39h46v36h-46Zm0,39h46v40h-46Zm0,75V560h46v32Zm49,43V596h42v39Zm45,0V596h43v39Zm46,0V596h43v39Zm46,0V596h46v39Zm49,0V596h43v39Zm46,0V596h39v39Zm43,0V596h45v39Zm91-43h-43V560h43Zm0-35h-43V517h43Zm0-43h-43V478h43Zm0-39h-43V439h43Zm0-40h-43V396h43Zm0-42h-43V357h43Zm0-39h-43V318h43Zm0-40h-43V275h43Zm0-42h-43V236h43Zm0-40h-43V197h43Zm46,360h-43V560h43Zm0-35h-43V517h43Zm0-43h-43V478h43Zm0-39h-43V439h43Zm0-40h-43V396h43Zm0-42h-43V357h43Zm0-39h-43V318h43Zm0-40h-43V275h43Zm0-42h-43V236h43Zm0-40h-43V197h43Zm49,282h-46V478h46Zm0-39h-46V439h46Zm0-40h-46V396h46Zm0-42h-46V357h46Zm0-39h-46V318h46Zm0-40h-46V275h46Z"/></g><path class="cls-116" d="M413.27,465c0,173,290,186,290,0Z"/><path class="cls-117" d="M412.58,465c0,170,291.35,183,291.35,0Z"/><path class="cls-118" d="M411.9,461c0,167,292.71,181,292.71,0Z"/><path class="cls-119" d="M411.21,461c0,164,294.09,177,294.09,0Z"/><path class="cls-120" d="M410.53,458c0,164,295.45,174,295.45,0Z"/><path class="cls-121" d="M409.85,458c0,157,296.81,170,296.81,0Z"/><path class="cls-122" d="M409.16,455c0,157,298.19,167,298.19,0Z"/><path class="cls-123" d="M408.48,455c0,151,299.55,163,299.55,0Z"/><path class="cls-124" d="M407.79,451c0,151,300.92,161,300.92,0Z"/><path class="cls-125" d="M407.11,451c0,148,302.29,158,302.29,0Z"/><path class="cls-126" d="M406.43,449c0,143,303.65,153,303.65,0Z"/><path class="cls-127" d="M405.74,449c0,140,305,150,305,0Z"/><path class="cls-128" d="M404.52,435c0,141,307.47,151,307.47,0Z"/><ellipse class="cls-129" cx="751.25" cy="339.63" rx="74.42" ry="83.27"/><ellipse class="cls-130" cx="751.25" cy="337.62" rx="74.42" ry="82.01"/><ellipse class="cls-131" cx="751.25" cy="335.62" rx="74.42" ry="80.74"/><ellipse class="cls-132" cx="751.25" cy="333.61" rx="74.42" ry="79.48"/><ellipse class="cls-133" cx="751.25" cy="331.61" rx="74.42" ry="78.21"/><ellipse class="cls-134" cx="751.25" cy="329.6" rx="74.42" ry="76.95"/><ellipse class="cls-135" cx="751.25" cy="327.6" rx="74.42" ry="75.68"/><circle class="cls-127" cx="751.25" cy="325.59" r="74.42"/><circle class="cls-128" cx="751.24" cy="312.51" r="73.6" transform="translate(-51.7 180.96) rotate(-13.28)"/><circle class="cls-136" cx="751.25" cy="312.51" r="70.33"/><circle class="cls-137" cx="751.24" cy="313.91" r="68.93"/><circle class="cls-138" cx="751.24" cy="315.31" r="67.52" transform="translate(-2.92 623.56) rotate(-45)"/><circle class="cls-139" cx="751.25" cy="316.71" r="66.12"/><circle class="cls-140" cx="751.24" cy="318.11" r="64.72"/><circle class="cls-141" cx="751.24" cy="319.52" r="63.32" transform="translate(-5.9 624.79) rotate(-45)"/><circle class="cls-142" cx="751.25" cy="320.92" r="61.92"/><circle class="cls-128" cx="751.24" cy="322.32" r="60.51"/><ellipse class="cls-129" cx="371.81" cy="339.63" rx="74.42" ry="83.27"/><ellipse class="cls-130" cx="371.81" cy="337.62" rx="74.42" ry="82.01"/><ellipse class="cls-131" cx="371.81" cy="335.62" rx="74.42" ry="80.74"/><ellipse class="cls-132" cx="371.81" cy="333.61" rx="74.42" ry="79.48"/><ellipse class="cls-133" cx="371.81" cy="331.61" rx="74.42" ry="78.21"/><ellipse class="cls-134" cx="371.81" cy="329.6" rx="74.42" ry="76.95"/><ellipse class="cls-135" cx="371.81" cy="327.6" rx="74.42" ry="75.68"/><circle class="cls-127" cx="371.81" cy="325.59" r="74.42"/><circle class="cls-128" cx="371.81" cy="312.51" r="73.6" transform="translate(-112.08 354.44) rotate(-45)"/><circle class="cls-136" cx="371.81" cy="312.51" r="70.33"/><circle class="cls-137" cx="371.81" cy="313.91" r="68.93"/><circle class="cls-138" cx="371.81" cy="315.31" r="67.52" transform="translate(-20.49 604.73) rotate(-76.72)"/><circle class="cls-139" cx="371.81" cy="316.71" r="66.12"/><circle class="cls-140" cx="371.81" cy="318.11" r="64.72"/><circle class="cls-141" cx="371.81" cy="319.52" r="63.32" transform="translate(-24.59 607.97) rotate(-76.72)"/><circle class="cls-142" cx="371.81" cy="320.92" r="61.92"/><circle class="cls-128" cx="371.81" cy="322.32" r="60.51"/><circle class="cls-28" cx="558.25" cy="57.37" r="40.89"/><circle class="cls-143" cx="558.25" cy="57.37" r="27.8"/><circle class="cls-144" cx="558.25" cy="57.37" r="14.72"/><path class="cls-145" d="M552.08,57.37A5.89,5.89,0,1,1,558,63.26,5.89,5.89,0,0,1,552.08,57.37Z"/><g id="katman_2-2" data-name="katman 2"><g id="katman_1-2" data-name="katman 1-2"><path class="cls-146" d="M539.8,1126.86l.44-.45a2.8,2.8,0,0,0,.29-3.63L518,1091.85l22.53-30.92a2.8,2.8,0,0,0-.29-3.63l-.44-.46-35,35Z"/><path class="cls-146" d="M575.46,1129.9l-.47-.47a2.89,2.89,0,0,1-.29-3.73l23.3-32-23.3-32A2.89,2.89,0,0,1,575,1058l.47-.47,36.21,36.19Z"/><rect class="cls-147" x="510" y="1089.35" width="93.15" height="4.1" transform="translate(-614.82 1450.2) rotate(-80.01)"/></g></g></g></g></svg>